<?xml version="1.0" encoding="UTF-8"?>

<!DOCTYPE svg PUBLIC '-//W3C//DTD SVG 1.0//EN' 'http://www.w3.org/TR/2001/REC-SVG-20010904/DTD/svg10.dtd'>
<svg xmlns:xlink="http://www.w3.org/1999/xlink" style="fill-opacity:1; color-rendering:auto; color-interpolation:auto; stroke:black; text-rendering:auto; stroke-linecap:square; stroke-miterlimit:10; stroke-opacity:1; shape-rendering:auto; fill:black; stroke-dasharray:none; font-weight:normal; stroke-width:1; font-family:&apos;Dialog&apos;; font-style:normal; stroke-linejoin:miter; font-size:12; stroke-dashoffset:0; image-rendering:auto;" xmlns="http://www.w3.org/2000/svg">
  <!--Generated by the Batik Graphics2D SVG Generator-->
  <defs id="genericDefs" />
  <g>
    <g transform="matrix(0,0,0,0,0,0)" style="font-size:32; fill:white; text-rendering:optimizeLegibility; font-family:sans-serif; stroke:white;">
      <rect x="47.6587" y="93.6486" width="103.9362" style="stroke:none;" height="78.8014" />
    </g>
    <g transform="matrix(0,0,0,0,0,0)" style="font-size:32; stroke-linecap:butt; text-rendering:optimizeLegibility; font-family:sans-serif; stroke-width:0.4953;">
      <path d="M70.5555 171.45 L107.2444 171.45 L107.2444 111.125 L70.5555 111.125 L70.5555 171.45" style="fill:none;" />
      <path d="M107.2582 122.5379 L109.0908 122.4671 L111.2948 122.4481 L113.8079 122.5122 L116.5675 122.6907 L119.5114 123.0146 L122.5771 123.5154 L125.7022 124.2243 L128.8243 125.1723 L131.881 126.3909 L131.9312 126.4163 L132.073 126.4897 L132.2926 126.6074 L132.5769 126.7657 L132.9121 126.9608 L133.2849 127.189 L133.6818 127.4463 L134.0892 127.7291 L134.4938 128.0336 L134.9647 128.4172 L135.4034 128.7965 L135.8036 129.1605 L136.1592 129.4984 L136.4639 129.7993 L136.7117 130.0522 L136.8963 130.2464 L137.0116 130.3709 L137.0514 130.4148 L136.7312 130.1863 L136.3403 129.8625 L135.8514 129.4565 L135.2369 128.9817 L134.4696 128.4512 L133.522 127.8784 L132.3667 127.2765 L130.9763 126.6586 L129.3234 126.0382 L127.4979 125.5206 L125.2978 125.0781 L122.8163 124.7161 L120.1471 124.4401 L117.3837 124.2557 L114.6196 124.1684 L111.9483 124.1838 L109.4633 124.3072 L107.2582 124.5444 L107.2453 124.5144 L107.2368 124.4274 L107.2319 124.2942 L107.23 124.1257 L107.2301 123.9326 L107.2316 123.726 L107.2336 123.5167 L107.2354 123.3155 L107.2362 123.1333 L107.2582 122.5379 Z" style="fill-rule:evenodd; stroke:none;" />
      <path d="M107.2582 122.5379 L109.0908 122.4671 L111.2948 122.4481 L113.8079 122.5122 L116.5675 122.6907 L119.5114 123.0146 L122.5771 123.5154 L125.7022 124.2243 L128.8243 125.1723 L131.881 126.3909 L131.9312 126.4163 L132.073 126.4897 L132.2926 126.6074 L132.5769 126.7657 L132.9121 126.9608 L133.2849 127.189 L133.6818 127.4463 L134.0892 127.7291 L134.4938 128.0336 L134.9647 128.4172 L135.4034 128.7965 L135.8036 129.1605 L136.1592 129.4984 L136.4639 129.7993 L136.7117 130.0522 L136.8963 130.2464 L137.0116 130.3709 L137.0514 130.4148 L136.7312 130.1863 L136.3403 129.8625 L135.8514 129.4565 L135.2369 128.9817 L134.4696 128.4512 L133.522 127.8784 L132.3667 127.2765 L130.9763 126.6586 L129.3234 126.0382 L127.4979 125.5206 L125.2978 125.0781 L122.8163 124.7161 L120.1471 124.4401 L117.3837 124.2557 L114.6196 124.1684 L111.9483 124.1838 L109.4633 124.3072 L107.2582 124.5444 L107.2453 124.5144 L107.2368 124.4274 L107.2319 124.2942 L107.23 124.1257 L107.2301 123.9326 L107.2316 123.726 L107.2336 123.5167 L107.2354 123.3155 L107.2362 123.1333" style="fill:none; stroke-width:0.1016;" />
      <path d="M95.9032 159.2489 L98.3281 157.8489" style="fill:none; stroke-width:0.1016;" />
      <path d="M93.6101 158.0583 L97.9485 155.5535" style="fill:none; stroke-width:0.1016;" />
      <path d="M93.5219 155.0156 L95.5882 153.8226" style="fill:none; stroke-width:0.1016;" />
      <path d="M91.6698 156.7795 L94.2755 155.2751" style="fill:none; stroke-width:0.1016;" />
      <path d="M96.6969 153.0753 L98.7809 151.8721" style="fill:none; stroke-width:0.1016;" />
      <path d="M92.199 153.3399 L98.8505 149.4996" style="fill:none; stroke-width:0.1016;" />
      <path d="M91.5816 152.4579 L94.6149 150.7067" style="fill:none; stroke-width:0.1016;" />
      <path d="M95.4622 150.5177 L98.3986 148.8224" style="fill:none; stroke-width:0.1016;" />
      <path d="M91.3171 170.2732 L99.0194 165.8263" style="fill:none; stroke-width:0.1016;" />
      <path d="M92.9928 164.717 L103.4153 158.6995" style="fill:none; stroke-width:0.1016;" />
      <path d="M95.6386 161.6302 L98.8525 159.7746" style="fill:none; stroke-width:0.1016;" />
      <path d="M92.199 164.4524 L103.2895 157.9922" style="fill:none; stroke-width:0.1016;" />
      <path d="M92.199 164.0996 L103.105 157.803" style="fill:none; stroke-width:0.1016;" />
      <path d="M82.8504 161.101 L83.7606 160.5755" style="fill:none; stroke-width:0.1016;" />
      <path d="M84.2693 160.2818 L86.1466 159.198" style="fill:none; stroke-width:0.1016;" />
      <path d="M87.8775 158.1906 L88.9469 157.5732" style="fill:none; stroke-width:0.1016;" />
      <path d="M89.5743 157.211 L91.2785 156.227" style="fill:none; stroke-width:0.1016;" />
      <path d="M80.0282 161.1892 L81.6668 162.1353" style="fill:none; stroke-width:0.1016;" />
      <path d="M82.674 163.9232 L83.7351 163.3106" style="fill:none; stroke-width:0.1016;" />
      <path d="M82.233 162.2475 L83.7878 161.3499" style="fill:none; stroke-width:0.1016;" />
      <path d="M91.0525 164.276 L88.6173 162.8701" style="fill:none; stroke-width:0.1016;" />
      <path d="M89.9941 165.5107 L88.1366 164.4382" style="fill:none; stroke-width:0.1016;" />
      <path d="M88.4066 169.5236 L88.4066 165.643" style="fill:none; stroke-width:0.1016;" />
      <path d="M82.1007 169.4795 L82.1007 165.6871" style="fill:none; stroke-width:0.1016;" />
      <path d="M78.2863 164.1437 L78.2863 159.5576" style="fill:none; stroke-width:0.1016;" />
      <path d="M77.8895 163.9894 L77.8895 159.5796" style="fill:none; stroke-width:0.1016;" />
      <path d="M75.0893 163.2177 L75.0893 157.926" style="fill:none; stroke-width:0.1016;" />
      <path d="M75.883 156.4267 L79.1249 154.555" style="fill:none; stroke-width:0.1016;" />
      <path d="M75.4421 154.3982 L81.3892 150.9647" style="fill:none; stroke-width:0.1016;" />
      <path d="M100.7539 148.8751 L100.7539 146.2843" style="fill:none; stroke-width:0.1016;" />
      <path d="M99.6955 148.3514 L99.6955 146.5489" style="fill:none; stroke-width:0.1016;" />
      <path d="M100.2468 147.6321 L100.2468 146.4828" style="fill:none; stroke-width:0.1016;" />
      <path d="M101.4043 150.9862 L101.4043 149.4373" style="fill:none; stroke-width:0.1016;" />
      <path d="M99.3286 158.698 L102.6034 156.8073" style="fill:none; stroke-width:0.1016;" />
      <path d="M99.8719 156.9559 L102.8799 155.2192" style="fill:none; stroke-width:0.1016;" />
      <path d="M99.3043 152.9376 L104.1053 155.6329" style="fill:none; stroke-width:0.1016;" />
      <path d="M99.6681 152.7281 L104.3424 155.418" style="fill:none; stroke-width:0.1016;" />
      <path d="M82.3212 161.101 L81.1279 160.412" style="fill:none; stroke-width:0.1016;" />
      <path d="M79.8518 160.7482 L80.6203 160.3045" style="fill:none; stroke-width:0.1016;" />
      <path d="M80.6455 160.2191 L80.6455 158.8079" style="fill:none; stroke-width:0.1016;" />
      <path d="M81.6157 159.0725 L89.5554 154.4885" style="fill:none; stroke-width:0.1016;" />
      <path d="M78.8817 155.6329 L80.3122 154.7043" style="fill:none; stroke-width:0.1016;" />
      <path d="M81.5495 156.5369 L82.9925 155.7038" style="fill:none; stroke-width:0.1016;" />
      <path d="M79.058 155.7211 L81.0178 156.6887" style="fill:none; stroke-width:0.1016;" />
      <path d="M79.1216 156.0934 L80.3616 156.779" style="fill:none; stroke-width:0.1016;" />
      <path d="M81.8803 163.9232 L81.8803 162.4239" style="fill:none; stroke-width:0.1016;" />
      <path d="M83.9969 162.9531 L83.9969 161.4538" style="fill:none; stroke-width:0.1016;" />
      <path d="M82.4976 164.0996 L84.4454 164.0996" style="fill:none; stroke-width:0.1016;" />
      <path d="M86.271 164.0996 L88.3185 164.0996" style="fill:none; stroke-width:0.1016;" />
      <path d="M88.4507 162.1152 L88.4619 159.668" style="fill:none; stroke-width:0.1016;" />
      <path d="M90.3469 162.6885 L90.3469 160.3954" style="fill:none; stroke-width:0.1016;" />
      <path d="M92.4636 161.1892 L92.4636 158.9843" style="fill:none; stroke-width:0.1016;" />
      <path d="M90.6997 161.7184 L93.2085 163.1668" style="fill:none; stroke-width:0.1016;" />
      <path d="M72.8844 159.5935 L72.8844 157.7496" style="fill:none; stroke-width:0.1016;" />
      <path d="M71.8261 163.3059 L71.8261 159.4253" style="fill:none; stroke-width:0.1016;" />
      <path d="M74.4719 155.8093 L76.0472 154.8999" style="fill:none; stroke-width:0.1016;" />
      <path d="M92.64 146.6371 L93.892 145.9142" style="fill:none; stroke-width:0.1016;" />
      <path d="M92.3754 143.5503 L93.551 142.8716" style="fill:none; stroke-width:0.1016;" />
      <path d="M94.5141 170.3835 L100.6106 166.7124" style="fill:none; stroke-width:0.1016;" />
      <path d="M95.2197 170.4717 L100.8311 166.9329" style="fill:none; stroke-width:0.1016;" />
      <path d="M96.8954 170.2953 L101.5367 167.5061" style="fill:none; stroke-width:0.1016;" />
      <path d="M99.453 155.8975 L100.2877 155.4156" style="fill:none; stroke-width:0.1016;" />
      <path d="M100.6326 155.5999 L101.2763 155.9715" style="fill:none; stroke-width:0.1016;" />
      <path d="M100.8972 154.9825 L101.6974 155.4445" style="fill:none; stroke-width:0.1016;" />
      <path d="M104.8218 156.7023 L104.8218 154.1006" style="fill:none; stroke-width:0.1016;" />
      <path d="M104.8659 154.1447 L103.2692 153.2228" style="fill:none; stroke-width:0.1016;" />
      <path d="M99.0287 150.9201 L100.2479 150.2917" style="fill:none; stroke-width:0.1016;" />
      <path d="M98.4829 150.9366 L99.6916 150.2388" style="fill:none; stroke-width:0.1016;" />
      <path d="M100.7759 150.0106 L101.2836 149.7174" style="fill:none; stroke-width:0.1016;" />
      <path d="M98.8356 148.9302 L99.6894 148.4373" style="fill:none; stroke-width:0.1016;" />
      <path d="M101.2169 149.1727 L99.7756 148.3817" style="fill:none; stroke-width:0.1016;" />
      <path d="M91.262 156.2393 L91.262 154.9605" style="fill:none; stroke-width:0.1016;" />
      <path d="M88.9469 157.6063 L88.9469 156.4157" style="fill:none; stroke-width:0.1016;" />
      <path d="M92.5849 155.4015 L92.5849 154.2108" style="fill:none; stroke-width:0.1016;" />
      <path d="M84.1844 155.644 L85.7719 154.0565" style="fill:none; stroke-width:0.1016;" />
      <path d="M88.0649 151.6752 L89.917 149.9114" style="fill:none; stroke-width:0.1016;" />
      <path d="M94.7677 150.22 L93.533 147.8388" style="fill:none; stroke-width:0.1016;" />
      <path d="M76.8642 154.0565 L79.0691 153.0864" style="fill:none; stroke-width:0.1016;" />
      <path d="M80.3038 152.6454 L81.4503 152.2044" style="fill:none; stroke-width:0.1016;" />
      <path d="M83.9198 159.5246 L84.4489 160.6711" style="fill:none; stroke-width:0.1016;" />
      <path d="M86.301 158.0253 L86.742 159.26" style="fill:none; stroke-width:0.1016;" />
      <path d="M89.1233 156.4378 L89.7406 157.4961" style="fill:none; stroke-width:0.1016;" />
      <path d="M91.5045 154.9384 L91.9455 156.2614" style="fill:none; stroke-width:0.1016;" />
      <path d="M83.7324 160.5278 L83.7324 159.4694" style="fill:none; stroke-width:0.1016;" />
      <path d="M83.7544 160.5719 L84.2659 160.8671" style="fill:none; stroke-width:0.1016;" />
      <path d="M86.1136 159.2048 L86.1136 158.0583" style="fill:none; stroke-width:0.1016;" />
      <path d="M86.1577 159.2489 L86.5979 159.5031" style="fill:none; stroke-width:0.1016;" />
      <path d="M88.9799 157.6174 L89.4392 157.8825" style="fill:none; stroke-width:0.1016;" />
      <path d="M82.63 164.9375 L84.923 163.8792" style="fill:none; stroke-width:0.1016;" />
      <path d="M88.0485 165.0424 L85.8216 163.918" style="fill:none; stroke-width:0.1016;" />
      <path d="M82.6189 160.9136 L82.6189 160.0758" style="fill:none; stroke-width:0.1016;" />
      <path d="M86.6538 158.9293 L87.0043 158.7269" style="fill:none; stroke-width:0.1016;" />
      <path d="M91.2978 156.22 L91.7167 156.4626" style="fill:none; stroke-width:0.1016;" />
      <path d="M91.8215 155.9389 L92.3762 155.6186" style="fill:none; stroke-width:0.1016;" />
      <path d="M96.7163 152.3009 C96.7163 152.4592 96.4596 152.5876 96.143 152.5876 C95.8264 152.5876 95.5697 152.4592 95.5697 152.3009 C95.5697 152.1426 95.8264 152.0143 96.143 152.0143 C96.4596 152.0143 96.7163 152.1426 96.7163 152.3009 Z" style="fill:none; stroke-width:0.1016;" />
      <path d="M95.5697 152.3009 L95.5697 153.8443" style="fill:none; stroke-width:0.1016;" />
      <path d="M96.7163 152.3009 L96.7163 153.8002" style="fill:none; stroke-width:0.1016;" />
      <path d="M96.7108 153.8168 L96.719 153.9085 L96.7407 153.9927 L96.7904 154.0777 L96.8828 154.1719 L97.0324 154.2836 L97.254 154.4213 L97.5622 154.5932 L97.9715 154.8079 L98.4967 155.0735 L98.649 155.2047 L98.8688 155.4631 L99.1355 155.8141 L99.4285 156.2229 L99.7273 156.6548 L100.0113 157.075 L100.26 157.4487 L100.4529 157.7413 L100.5693 157.9178" style="fill:none; stroke-width:0.1016;" />
      <path d="M100.5582 157.995 L100.5582 159.1856" style="fill:none; stroke-width:0.1016;" />
      <path d="M100.9083 156.7354 L103.0255 155.513" style="fill:none; stroke-width:0.1016;" />
      <path d="M103.069 157.8158 L103.3472 157.6512 L103.5811 157.4895 L103.7738 157.3219 L103.9284 157.1397 L104.0479 156.9339 L104.1355 156.6958 L104.1943 156.4165 L104.2273 156.0872 L104.2376 155.6991" style="fill:none; stroke-width:0.1016;" />
      <path d="M103.3178 157.9594 L103.5959 157.7948 L103.8298 157.6331 L104.0225 157.4655 L104.1771 157.2833 L104.2966 157.0775 L104.3843 156.8394 L104.443 156.5601 L104.476 156.2308 L104.4863 155.8427" style="fill:none; stroke-width:0.1016;" />
      <path d="M103.3777 158.7198 L103.7232 158.4831 L104.0128 158.2531 L104.2506 158.0223 L104.4407 157.783 L104.587 157.5277 L104.6938 157.2488 L104.765 156.9389 L104.8047 156.5903 L104.8171 156.1955" style="fill:none; stroke-width:0.1016;" />
      <path d="M102.8761 154.1172 L101.8398 152.9486" style="fill:none; stroke-width:0.1016;" />
      <path d="M103.2509 153.1691 L101.8839 151.5375" style="fill:none; stroke-width:0.1016;" />
      <path d="M103.0304 154.5802 L103.0304 153.2132" style="fill:none; stroke-width:0.1016;" />
      <path d="M99.657 152.5297 L98.3341 151.5595" style="fill:none; stroke-width:0.1016;" />
      <path d="M98.3341 151.6477 L98.3341 151.0304" style="fill:none; stroke-width:0.1016;" />
      <path d="M95.6552 156.6417 L94.5527 155.407" style="fill:none; stroke-width:0.1016;" />
      <path d="M96.0962 156.1126 L94.7291 155.2747" style="fill:none; stroke-width:0.1016;" />
      <path d="M91.951 158.3615 C91.951 158.4833 91.7536 158.582 91.51 158.582 C91.2665 158.582 91.0691 158.4833 91.0691 158.3615 C91.0691 158.2398 91.2665 158.1411 91.51 158.1411 C91.7536 158.1411 91.951 158.2398 91.951 158.3615 Z" style="fill:none; stroke-width:0.1016;" />
      <path d="M90.0107 159.4199 C90.0107 159.5417 89.8133 159.6404 89.5698 159.6404 C89.3262 159.6404 89.1288 159.5417 89.1288 159.4199 C89.1288 159.2981 89.3262 159.1994 89.5698 159.1994 C89.8133 159.1994 90.0107 159.2981 90.0107 159.4199 Z" style="fill:none; stroke-width:0.1016;" />
      <path d="M90.7604 158.9348 C90.7604 159.0322 90.6024 159.1112 90.4076 159.1112 C90.2128 159.1112 90.0548 159.0322 90.0548 158.9348 C90.0548 158.8374 90.2128 158.7584 90.4076 158.7584 C90.6024 158.7584 90.7604 158.8374 90.7604 158.9348 Z" style="fill:none; stroke-width:0.1016;" />
      <path d="M90.0576 158.9127 C90.0412 158.9778 90.0984 159.0422 90.2063 159.0797 C90.3141 159.1171 90.4547 159.1215 90.5711 159.0911 C90.6874 159.0607 90.7604 159.0005 90.7604 158.9348" style="fill:none; stroke-width:0.1016;" />
      <path d="M90.7604 158.9348 C90.7604 158.9224 90.7578 158.9101 90.7526 158.898" style="fill:none; stroke-width:0.1016;" />
      <path d="M90.7604 158.0529 C90.7604 158.1503 90.6024 158.2292 90.4076 158.2292 C90.2128 158.2292 90.0548 158.1503 90.0548 158.0529 C90.0548 157.9554 90.2128 157.8765 90.4076 157.8765 C90.6024 157.8765 90.7604 157.9554 90.7604 158.0529 Z" style="fill:none; stroke-width:0.1016;" />
      <path d="M90.0576 158.2513 C90.0792 158.3367 90.2208 158.4018 90.3927 158.4055 C90.5646 158.4091 90.7167 158.3502 90.7526 158.2661" style="fill:none; stroke-width:0.1016;" />
      <path d="M90.0576 158.0666 L90.0576 158.9375" style="fill:none; stroke-width:0.1016;" />
      <path d="M90.7521 158.0556 L90.7521 158.9486" style="fill:none; stroke-width:0.1016;" />
      <path d="M90.0576 158.4718 C90.0792 158.5572 90.2208 158.6223 90.3927 158.626 C90.5646 158.6296 90.7167 158.5707 90.7526 158.4865" style="fill:none; stroke-width:0.1016;" />
      <path d="M90.0576 158.7144 C90.0792 158.7997 90.2208 158.8649 90.3927 158.8685 C90.5646 158.8721 90.7167 158.8132 90.7526 158.7291" style="fill:none; stroke-width:0.1016;" />
      <path d="M87.0397 159.4667 L87.0397 157.7056" style="fill:none; stroke-width:0.1016;" />
      <path d="M87.9326 159.3592 L87.9326 157.7276" style="fill:none; stroke-width:0.1016;" />
      <path d="M87.9271 157.7221 C87.9271 157.8439 87.7297 157.9426 87.4862 157.9426 C87.2426 157.9426 87.0452 157.8439 87.0452 157.7221 C87.0452 157.6004 87.2426 157.5016 87.4862 157.5016 C87.7297 157.5016 87.9271 157.6004 87.9271 157.7221 Z" style="fill:none; stroke-width:0.1016;" />
      <path d="M87.0452 159.464 C87.0452 159.5427 87.1292 159.6155 87.2657 159.6549 C87.4021 159.6943 87.5702 159.6943 87.7066 159.6549 C87.8431 159.6155 87.9271 159.5427 87.9271 159.464" style="fill:none; stroke-width:0.1016;" />
      <path d="M85.003 161.5007 L84.4342 161.1723" style="fill:none; stroke-width:0.1016;" />
      <path d="M86.1936 163.485 L87.0314 163.8378" style="fill:none; stroke-width:0.1016;" />
      <path d="M86.2956 162.231 L86.4069 162.3438 L86.5168 162.4568 L86.6226 162.576 L86.7217 162.7079 L86.8114 162.8586 L86.889 163.0344 L86.952 163.2414 L86.9976 163.486 L87.0232 163.7744" style="fill:none; stroke-width:0.1016;" />
      <path d="M87.9575 163.485 L87.9948 163.3586 L88.0209 163.2471 L88.0418 163.1479 L88.0637 163.0579 L88.0924 162.9743 L88.1343 162.8944 L88.1951 162.8151 L88.2812 162.7337 L88.3984 162.6472" style="fill:none; stroke-width:0.1016;" />
      <path d="M87.0507 163.8902 L87.6901 163.7579" style="fill:none; stroke-width:0.1016;" />
      <path d="M71.8317 159.4309 L71.8527 159.2752 L71.8885 159.1409 L71.9427 159.0201 L72.0187 158.9047 L72.1199 158.7868 L72.2498 158.6584 L72.4118 158.5114 L72.6093 158.338 L72.8459 158.13" style="fill:none; stroke-width:0.1016;" />
      <path d="M72.89 157.7331 L72.8972 157.4569 L72.9359 157.2461 L73.0101 157.0798 L73.1234 156.937 L73.2797 156.7964 L73.4829 156.6372 L73.7367 156.4383 L74.0449 156.1785 L74.4114 155.837" style="fill:none; stroke-width:0.1016;" />
      <path d="M74.0586 157.4024 L74.0586 156.1677" style="fill:none; stroke-width:0.1016;" />
      <path d="M74.7917 155.6 L74.7976 155.3841 L74.8164 155.2023 L74.8496 155.0486 L74.8991 154.9174 L74.9665 154.8027 L75.0533 154.6987 L75.1614 154.5996 L75.2923 154.4996 L75.4477 154.3928" style="fill:none; stroke-width:0.1016;" />
      <path d="M77.4596 155.181 L76.6879 154.7401" style="fill:none; stroke-width:0.1016;" />
      <path d="M72.8873 159.5935 L72.881 159.6385 L72.8717 159.6736 L72.8599 159.701 L72.846 159.7225 L72.8306 159.7401 L72.8141 159.7558 L72.7971 159.7715 L72.7799 159.7894 L72.7632 159.8112" style="fill:none; stroke-width:0.1016;" />
      <path d="M93.533 147.8499 L93.4694 147.6084 L93.44 147.3981 L93.4501 147.2133 L93.5051 147.0479 L93.61 146.8961 L93.7703 146.7519 L93.9911 146.6095 L94.2777 146.463 L94.6355 146.3065" style="fill:none; stroke-width:0.1016;" />
      <path d="M95.0323 151.3776 L95.0243 151.2137 L95.0153 151.0668 L95.0035 150.9335 L94.9869 150.8101 L94.9636 150.693 L94.9317 150.5788 L94.8892 150.4638 L94.8343 150.3445 L94.765 150.2173" style="fill:none; stroke-width:0.1016;" />
      <path d="M100.7595 146.2678 L100.7488 146.0073 L100.7116 145.7988 L100.6486 145.6286 L100.5605 145.4829 L100.448 145.3477 L100.3118 145.2093 L100.1524 145.0538 L99.9707 144.8674 L99.7673 144.6362" style="fill:none; stroke-width:0.1016;" />
      <path d="M100.2413 146.4773 L100.225 146.28 L100.1792 146.0994 L100.1064 145.9324 L100.0087 145.776 L99.8884 145.627 L99.7479 145.4825 L99.5893 145.3392 L99.4149 145.1941 L99.2271 145.0441" style="fill:none; stroke-width:0.1016;" />
      <path d="M99.6984 146.5407 L99.6766 146.3479 L99.6402 146.1849 L99.5887 146.0468 L99.5218 145.9286 L99.4389 145.8253 L99.3395 145.7318 L99.2231 145.6432 L99.0894 145.5543 L98.9377 145.4603" style="fill:none; stroke-width:0.1016;" />
      <path d="M98.8385 148.9329 L98.7675 148.9618 L98.7 149.0056 L98.6388 149.0616 L98.5871 149.1273 L98.5478 149.1999 L98.5238 149.2768 L98.5182 149.3552 L98.5339 149.4326 L98.5739 149.5062" style="fill:none; stroke-width:0.1016;" />
      <path d="M101.2197 149.1755 L101.2602 149.1967 L101.2948 149.2174 L101.3236 149.2386 L101.3471 149.2611 L101.3656 149.2861 L101.3795 149.3144 L101.3889 149.347 L101.3944 149.3849 L101.3961 149.429" style="fill:none; stroke-width:0.1016;" />
      <path d="M102.4186 159.3041 L102.4186 165.6982" style="fill:none; stroke-width:0.1016;" />
      <path d="M101.6249 159.7891 L101.6249 165.6982" style="fill:none; stroke-width:0.1016;" />
      <path d="M101.3603 165.5218 L101.3603 162.9641" style="fill:none; stroke-width:0.1016;" />
      <path d="M101.3603 161.5971 L101.3603 159.8332" style="fill:none; stroke-width:0.1016;" />
      <path d="M100.8118 166.9466 L101.0158 166.8063 L101.1822 166.6761 L101.3149 166.5518 L101.4179 166.4288 L101.4952 166.3028 L101.5509 166.1692 L101.5888 166.0237 L101.6131 165.8617 L101.6276 165.6788" style="fill:none; stroke-width:0.1016;" />
      <path d="M100.5831 166.7289 L100.7068 166.6412 L100.8278 166.5582 L100.9428 166.4721 L101.0488 166.3751 L101.1426 166.2592 L101.2211 166.1167 L101.281 165.9396 L101.3193 165.72 L101.3327 165.4501" style="fill:none; stroke-width:0.1016;" />
      <path d="M101.5091 167.5227 L101.7338 167.3407 L101.9203 167.1788 L102.0719 167.0261 L102.1916 166.8717 L102.2826 166.7046 L102.348 166.5138 L102.3909 166.2884 L102.4143 166.0174 L102.4214 165.6899" style="fill:none; stroke-width:0.1016;" />
      <path d="M99.7315 160.9053 L99.7315 164.83" style="fill:none; stroke-width:0.1016;" />
      <path d="M98.9984 165.8387 L99.1651 165.7379 L99.308 165.6354 L99.428 165.5304 L99.5264 165.4223 L99.6043 165.3104 L99.6629 165.1939 L99.7033 165.0723 L99.7267 164.9448 L99.7342 164.8107" style="fill:none; stroke-width:0.1016;" />
      <path d="M77.8841 159.5631 L77.9022 159.1242 L77.9758 158.785 L78.1084 158.5209 L78.3039 158.3074 L78.5659 158.1199 L78.8981 157.9338 L79.3043 157.7244 L79.7882 157.4673 L80.3535 157.1378" style="fill:none; stroke-width:0.1016;" />
      <path d="M78.2782 159.5824 L78.2993 159.267 L78.3826 159.0024 L78.5248 158.7752 L78.7228 158.5716 L78.9735 158.3781 L79.2736 158.1811 L79.62 157.9669 L80.0095 157.722 L80.4389 157.4327" style="fill:none; stroke-width:0.1016;" />
      <path d="M88.6245 153.8884 L87.8748 152.1686" style="fill:none; stroke-width:0.1016;" />
      <path d="M86.8606 154.9467 L86.2873 153.6679" style="fill:none; stroke-width:0.1016;" />
      <path d="M85.6286 153.1194 L86.8165 151.8158" style="fill:none; stroke-width:0.1016;" />
      <path d="M87.1252 152.9182 L87.1252 152.0363" style="fill:none; stroke-width:0.1016;" />
      <path d="M86.2873 153.5356 L87.2492 152.9803" style="fill:none; stroke-width:0.1016;" />
      <path d="M86.7724 153.9766 L87.7827 153.3933" style="fill:none; stroke-width:0.1016;" />
      <path d="M86.596 154.3734 L87.8307 153.5797" style="fill:none; stroke-width:0.1016;" />
      <path d="M87.3181 152.9568 L87.8964 153.2907" style="fill:none; stroke-width:0.1016;" />
      <path d="M87.6047 153.7947 L88.1944 154.1351" style="fill:none; stroke-width:0.1016;" />
      <path d="M86.1027 153.4832 L85.6286 153.1415" style="fill:none; stroke-width:0.1016;" />
      <path d="M86.2901 153.6817 L86.0917 153.4722" style="fill:none; stroke-width:0.1016;" />
      <path d="M86.8193 151.8296 L86.8712 151.7723 L86.9446 151.7227 L87.0373 151.6875 L87.1472 151.6735 L87.272 151.6876 L87.4097 151.7365 L87.5579 151.827 L87.7146 151.966 L87.8776 152.1603" style="fill:none; stroke-width:0.1016;" />
      <path d="M89.8454 153.2683 L80.7614 158.6922" style="fill:none; stroke-width:0.3251;" />
      <path d="M89.9777 153.6651 L87.7792 154.9345" style="fill:none; stroke-width:0.1016;" />
      <path d="M85.4798 156.3992 L84.2049 157.1352" style="fill:none; stroke-width:0.1016;" />
      <path d="M82.9663 157.9426 L81.2689 158.9225" style="fill:none; stroke-width:0.1016;" />
      <path d="M80.7614 158.9568 L82.6749 160.0616" style="fill:none; stroke-width:0.3251;" />
      <path d="M82.9222 159.971 L92.5354 154.1943" style="fill:none; stroke-width:0.3251;" />
      <path d="M92.5795 154.1061 L90.9479 153.0478" style="fill:none; stroke-width:0.3251;" />
      <path d="M91.9456 154.1228 L90.7274 153.3124" style="fill:none; stroke-width:0.1016;" />
      <path d="M91.9015 154.211 L82.7458 159.6624" style="fill:none; stroke-width:0.1016;" />
      <path d="M82.7458 159.6624 L81.3788 158.9127" style="fill:none; stroke-width:0.1016;" />
      <path d="M98.4334 151.0083 L98.4922 151.0215 L98.5877 151.0542 L98.7049 151.0958 L98.8289 151.1357 L98.9448 151.1635 L99.0376 151.1686 L99.0925 151.1404 L99.0945 151.0684 L99.0287 150.9422" style="fill:none; stroke-width:0.1016;" />
      <path d="M75.0839 157.9648 L75.1336 157.7761 L75.1684 157.5773 L75.1979 157.3745 L75.2319 157.1738 L75.2802 156.9816 L75.3525 156.8041 L75.4587 156.6474 L75.6084 156.5177 L75.8115 156.4214" style="fill:none; stroke-width:0.1016;" />
      <path d="M79.6535 160.1751 L79.644 159.9852 L79.6498 159.8101 L79.678 159.6468 L79.7355 159.4922 L79.8295 159.3433 L79.9671 159.1968 L80.1552 159.0499 L80.4011 158.8993 L80.7118 158.742" style="fill:none; stroke-width:0.1016;" />
      <path d="M82.1064 165.6708 L82.1099 165.5558 L82.1234 165.4594 L82.1485 165.3773 L82.1869 165.3052 L82.24 165.2386 L82.3095 165.1733 L82.3971 165.1047 L82.5043 165.0285 L82.6328 164.9404" style="fill:none; stroke-width:0.1016;" />
      <path d="M84.9148 163.8711 L85.0069 163.8297 L85.1057 163.8012 L85.2094 163.7853 L85.3164 163.7819 L85.425 163.791 L85.5334 163.8122 L85.64 163.8456 L85.743 163.891 L85.8409 163.9482" style="fill:none; stroke-width:0.1016;" />
      <path d="M88.4233 165.6598 L88.4172 165.5306 L88.4026 165.4297 L88.3796 165.3515 L88.3483 165.2903 L88.3088 165.2404 L88.2612 165.1964 L88.2056 165.1524 L88.142 165.103 L88.0705 165.0424" style="fill:none; stroke-width:0.1016;" />
      <path d="M90.3884 169.8848 L90.3884 166.3129" style="fill:none; stroke-width:0.1016;" />
      <path d="M90.653 169.5761 L90.653 166.4452" style="fill:none; stroke-width:0.1016;" />
      <path d="M91.4026 170.5463 L91.4026 166.8862" style="fill:none; stroke-width:0.1016;" />
      <path d="M91.4192 166.8586 L91.4644 166.3958 L91.5831 166.0041 L91.7578 165.6771 L91.9709 165.4082 L92.2051 165.1909 L92.443 165.0186 L92.6671 164.8847 L92.8598 164.7828 L93.0039 164.7061" style="fill:none; stroke-width:0.1016;" />
      <path d="M90.653 166.4563 L90.7263 166.0735 L90.8619 165.7329 L91.0437 165.4334 L91.2558 165.174 L91.4821 164.9534 L91.7064 164.7708 L91.9128 164.6248 L92.0852 164.5145 L92.2074 164.4388" style="fill:none; stroke-width:0.1016;" />
      <path d="M90.3884 166.2909 L90.4174 166.0207 L90.484 165.7605 L90.5906 165.5087 L90.7398 165.2637 L90.934 165.0241 L91.1756 164.7883 L91.4672 164.5548 L91.8113 164.3222 L92.2102 164.0888" style="fill:none; stroke-width:0.1016;" />
      <path d="M99.263 153.172 L100.2331 154.4949" style="fill:none; stroke-width:0.1016;" />
      <path d="M100.2552 155.4209 L100.3621 155.3407 L100.4378 155.2516 L100.4842 155.1551 L100.5033 155.0524 L100.497 154.945 L100.4671 154.8342 L100.4155 154.7213 L100.3443 154.6078 L100.2552 154.4949" style="fill:none; stroke-width:0.1016;" />
      <path d="M96.4347 152.3009 C96.4347 152.3815 96.3041 152.4468 96.143 152.4468 C95.9819 152.4468 95.8513 152.3815 95.8513 152.3009 C95.8513 152.2204 95.9819 152.155 96.143 152.155 C96.3041 152.155 96.4347 152.2204 96.4347 152.3009 Z" style="fill:none; stroke-width:0.1016;" />
      <path d="M100.0595 151.7746 L99.9088 151.7497 L99.7867 151.7012 L99.6892 151.6331 L99.6123 151.5491 L99.5521 151.453 L99.5045 151.3488 L99.4656 151.2401 L99.4314 151.1309 L99.398 151.025" style="fill:none; stroke-width:0.1016;" />
      <path d="M101.1564 151.7471 L101.3349 151.6562 L101.4924 151.5798 L101.6217 151.5117 L101.7155 151.4456 L101.7667 151.3756 L101.7679 151.2953 L101.7118 151.1985 L101.5912 151.0793 L101.3989 150.9313" style="fill:none; stroke-width:0.1016;" />
      <path d="M101.771 151.3474 L101.771 152.2294" style="fill:none; stroke-width:0.1016;" />
      <path d="M100.9883 152.6152 L100.9883 151.8876" style="fill:none; stroke-width:0.1016;" />
      <path d="M101.1316 152.8798 L101.5726 152.5601" style="fill:none; stroke-width:0.1016;" />
      <path d="M100.156 151.8931 L100.6851 151.5844" style="fill:none; stroke-width:0.1016;" />
      <path d="M100.6851 151.5844 L100.7513 152.3561" style="fill:none; stroke-width:0.1016;" />
      <path d="M100.0898 151.9152 L100.0898 152.6648" style="fill:none; stroke-width:0.1016;" />
      <path d="M100.2441 152.7089 L100.5781 152.5161" style="fill:none; stroke-width:0.1016;" />
      <path d="M85.3199 163.0385 L85.3199 161.2775" style="fill:none; stroke-width:0.1016;" />
      <path d="M86.2128 162.9311 L86.2128 161.2995" style="fill:none; stroke-width:0.1016;" />
      <path d="M86.2073 161.294 C86.2073 161.4158 86.0099 161.5145 85.7664 161.5145 C85.5228 161.5145 85.3254 161.4158 85.3254 161.294 C85.3254 161.1722 85.5228 161.0735 85.7664 161.0735 C86.0099 161.0735 86.2073 161.1722 86.2073 161.294 Z" style="fill:none; stroke-width:0.1016;" />
      <path d="M85.3254 163.0358 C85.3254 163.1146 85.4094 163.1874 85.5459 163.2268 C85.6823 163.2662 85.8504 163.2662 85.9869 163.2268 C86.1233 163.1874 86.2073 163.1146 86.2073 163.0358" style="fill:none; stroke-width:0.1016;" />
      <path d="M85.9768 161.294 C85.9768 161.3521 85.8826 161.3992 85.7664 161.3992 C85.6501 161.3992 85.5559 161.3521 85.5559 161.294 C85.5559 161.2359 85.6501 161.1888 85.7664 161.1888 C85.8826 161.1888 85.9768 161.2359 85.9768 161.294 Z" style="fill:none; stroke-width:0.1016;" />
      <path d="M90.0301 160.3322 L92.4424 158.9395" style="fill:none; stroke-width:0.1016;" />
      <path d="M89.3687 160.3763 L88.4867 159.7149" style="fill:none; stroke-width:0.1016;" />
      <path d="M88.5308 159.318 L90.0576 158.3742" style="fill:none; stroke-width:0.1016;" />
      <path d="M90.716 157.9671 L90.9562 157.8187" style="fill:none; stroke-width:0.1016;" />
      <path d="M91.5983 157.8104 L92.4114 158.4361" style="fill:none; stroke-width:0.1016;" />
      <path d="M91.6617 159.0975 L92.3232 158.6566" style="fill:none; stroke-width:0.1016;" />
      <path d="M89.3935 160.3901 L89.4339 160.4202 L89.4874 160.4435 L89.5515 160.4591 L89.6238 160.466 L89.7018 160.4632 L89.783 160.4497 L89.8651 160.4245 L89.9455 160.3866 L90.0219 160.335" style="fill:none; stroke-width:0.1016;" />
      <path d="M88.4895 159.7287 L88.4429 159.6866 L88.4123 159.6417 L88.3962 159.5949 L88.393 159.5472 L88.4012 159.4995 L88.4193 159.4526 L88.4456 159.4075 L88.4787 159.3651 L88.5171 159.3262" style="fill:none; stroke-width:0.1016;" />
      <path d="M89.534 160.5196 L89.523 161.8866" style="fill:none; stroke-width:0.1016;" />
      <path d="M92.4334 158.9652 L92.4896 158.9169 L92.5282 158.8626 L92.5502 158.8035 L92.5563 158.7405 L92.5474 158.6746 L92.5243 158.6069 L92.4878 158.5384 L92.4389 158.47 L92.3783 158.403" style="fill:none; stroke-width:0.1016;" />
      <path d="M92.3259 158.6593 L92.349 158.6366 L92.3685 158.614 L92.3838 158.5906 L92.3947 158.5657 L92.4006 158.5386 L92.4013 158.5084 L92.3962 158.4744 L92.385 158.4359 L92.3673 158.3919" style="fill:none; stroke-width:0.1016;" />
      <path d="M90.9369 157.8214 L90.9954 157.7926 L91.0614 157.7678 L91.1334 157.748 L91.2095 157.7347 L91.2882 157.729 L91.3678 157.7322 L91.4467 157.7455 L91.5232 157.7703 L91.5956 157.8076" style="fill:none; stroke-width:0.1016;" />
      <path d="M88.823 159.7204 L88.7244 159.6507 L88.6437 159.5897 L88.5807 159.5365 L88.5353 159.49 L88.5073 159.449 L88.4965 159.4127 L88.5029 159.3799 L88.5263 159.3496 L88.5666 159.3207" style="fill:none; stroke-width:0.1016;" />
      <path d="M89.3521 160.0952 L89.4564 160.1766 L89.5541 160.2252 L89.6508 160.242 L89.7521 160.2282 L89.8635 160.1851 L89.9905 160.1138 L90.1387 160.0154 L90.3136 159.8912 L90.5207 159.7424" style="fill:none; stroke-width:0.1016;" />
      <path d="M90.6943 160.0042 L91.8409 160.798" style="fill:none; stroke-width:0.1016;" />
      <path d="M91.8409 160.798 L93.715 162.8706" style="fill:none; stroke-width:0.1016;" />
      <path d="M98.8771 159.7755 L98.9654 159.664 L99.0176 159.5444 L99.0452 159.4193 L99.0597 159.2912 L99.0726 159.1626 L99.0956 159.0362 L99.1402 158.9144 L99.2178 158.7999 L99.3401 158.6951" style="fill:none; stroke-width:0.1016;" />
      <path d="M104.5106 155.8839 L104.7751 155.6193" style="fill:none; stroke-width:0.1016;" />
      <path d="M104.2901 155.6193 L104.5546 155.487" style="fill:none; stroke-width:0.1016;" />
      <path d="M104.5546 155.487 L104.5546 154.9138" style="fill:none; stroke-width:0.1016;" />
      <path d="M103.4963 157.0525 L103.0981 156.8226" style="fill:none; stroke-width:0.1016;" />
      <path d="M103.7388 156.5454 L103.4963 156.4131" style="fill:none; stroke-width:0.1016;" />
      <path d="M102.6089 156.8044 L102.8007 156.6508 L102.9532 156.51 L103.0711 156.3765 L103.159 156.2453 L103.2216 156.1109 L103.2638 155.9682 L103.2902 155.8119 L103.3055 155.6367 L103.3144 155.4374" style="fill:none; stroke-width:0.1016;" />
      <path d="M83.2226 155.6083 L81.1721 154.6382" style="fill:none; stroke-width:0.1016;" />
      <path d="M81.7039 156.8456 L83.1468 156.0125" style="fill:none; stroke-width:0.1016;" />
      <path d="M80.3012 154.7153 L80.4188 154.6592 L80.527 154.6184 L80.6282 154.5916 L80.725 154.5775 L80.8197 154.5747 L80.9148 154.5818 L81.0128 154.5975 L81.1161 154.6204 L81.2272 154.6492" style="fill:none; stroke-width:0.1016;" />
      <path d="M78.7027 156.0383 L78.7052 155.97 L78.7127 155.9126 L78.7251 155.8633 L78.7425 155.8197 L78.7647 155.7792 L78.7917 155.7392 L78.8235 155.6973 L78.8599 155.6508 L78.9011 155.5973" style="fill:none; stroke-width:0.1016;" />
      <path d="M81.2382 157.6478 L81.2382 156.81" style="fill:none; stroke-width:0.1016;" />
      <path d="M81.6351 157.7139 L81.6351 156.8981" style="fill:none; stroke-width:0.1016;" />
      <path d="M80.5768 156.9643 L80.6429 157.3171" style="fill:none; stroke-width:0.1016;" />
      <path d="M80.6429 157.3171 L81.2823 157.6698" style="fill:none; stroke-width:0.1016;" />
      <path d="M81.2823 157.6698 L81.8335 157.7801" style="fill:none; stroke-width:0.1016;" />
      <path d="M82.6143 157.2329 L83.0174 157.4065 L83.3312 157.3745 L83.5583 157.1788 L83.7009 156.8616 L83.7616 156.465 L83.7429 156.0309 L83.647 155.6015 L83.4766 155.2189 L83.2336 154.9248 L82.4339 154.3374 L81.6058 153.8608 L80.7781 153.4529 L79.9795 153.0719 L79.2388 152.6758 L78.5846 152.2226 L78.0457 151.6704 L77.6508 150.9773 L77.4287 150.1014" style="fill:none; stroke-width:1.0008; stroke:white;" />
      <path d="M82.2635 156.9533 L82.767 157.3204 L83.1645 157.4154 L83.4589 157.2914 L83.6533 157.0016 L83.7508 156.5991 L83.7546 156.1371 L83.6676 155.6686 L83.4929 155.2467 L83.2336 154.9248 L82.3948 154.3125 L81.5263 153.8195 L80.6612 153.3976 L79.8326 152.9986 L79.0735 152.5742 L78.417 152.0762 L77.8962 151.4563 L77.544 150.6663 L77.3935 149.6579" style="fill:none; stroke-width:0.1016;" />
      <path d="M80.0283 154.8724 L79.6962 154.6807" style="fill:none; stroke-width:0.1016;" />
      <path d="M82.5442 136.5054 C82.5143 136.5795 82.5713 136.6556 82.6911 136.7018 C82.8109 136.7479 82.9728 136.756 83.1084 136.7226 C83.2441 136.6892 83.3301 136.6202 83.3301 136.5445" style="fill:none; stroke-width:0.1016;" />
      <path d="M83.3301 136.5445 C83.3301 136.5365 83.3291 136.5284 83.3271 136.5204" style="fill:none; stroke-width:0.1016;" />
      <path d="M81.9023 152.5682 L81.9023 136.5168" style="fill:none; stroke-width:0.1016;" />
      <path d="M81.9023 136.4286 L82.6304 136.0083" style="fill:none; stroke-width:0.1016;" />
      <path d="M83.0788 135.7494 L90.2866 131.5879" style="fill:none; stroke-width:0.1016;" />
      <path d="M90.3137 131.5637 L91.799 132.4212" style="fill:none; stroke-width:0.1016;" />
      <path d="M83.4898 153.4501 L81.8894 152.5261" style="fill:none; stroke-width:0.1016;" />
      <path d="M83.7767 145.3085 L91.4526 140.8768" style="fill:none; stroke-width:0.1016;" />
      <path d="M83.7114 145.0816 L91.4561 140.6102" style="fill:none; stroke-width:0.1016;" />
      <path d="M83.4844 153.4337 L83.3852 137.3272 L91.8078 132.4324 L91.7747 148.6712 L83.4899 153.4392" style="fill:none; stroke-width:0.1016;" />
      <path d="M83.8149 152.9315 L83.72 137.5184 L91.473 133.0128 L91.4415 148.4793 L83.8069 152.9293" style="fill:none; stroke-width:0.1016;" />
      <path d="M84.1293 145.16 L84.1293 150.4957" style="fill:none; stroke-width:0.1016;" />
      <path d="M84.438 144.9395 L84.438 148.6437" style="fill:none; stroke-width:0.1016;" />
      <path d="M84.7908 144.6749 L84.7908 146.968" style="fill:none; stroke-width:0.1016;" />
      <path d="M85.2759 145.8214 L85.2759 144.4103" style="fill:none; stroke-width:0.1016;" />
      <path d="M85.7168 145.1159 L85.7168 144.2339" style="fill:none; stroke-width:0.1016;" />
      <path d="M86.1578 144.5867 L86.1578 143.9694" style="fill:none; stroke-width:0.1016;" />
      <path d="M84.1293 143.3079 L84.1293 137.2887" style="fill:none; stroke-width:0.1016;" />
      <path d="M84.5703 140.3314 L84.5703 137.0241" style="fill:none; stroke-width:0.1016;" />
      <path d="M85.0113 138.6116 L85.0113 136.8477" style="fill:none; stroke-width:0.1016;" />
      <path d="M85.4082 137.4651 L85.4082 136.539" style="fill:none; stroke-width:0.1016;" />
      <path d="M85.7609 136.7154 L85.7609 136.3626" style="fill:none; stroke-width:0.1016;" />
      <path d="M82.6521 137.2225 L82.6521 152.392" style="fill:none; stroke-width:0.1016;" />
      <path d="M82.2993 152.6566 L82.2993 137.1343" style="fill:none; stroke-width:0.1016;" />
      <path d="M83.3163 137.3025 L81.9465 136.4288" style="fill:none; stroke-width:0.1016;" />
      <path d="M82.5446 136.5418 L82.5656 136.2376 L82.6345 135.9973 L82.7377 135.8264 L82.8619 135.73 L82.9937 135.7135 L83.1195 135.7822 L83.226 135.9415 L83.2998 136.1965 L83.3273 136.5528" style="fill:none; stroke-width:0.1016;" />
      <path d="M82.5442 136.5054 C82.5143 136.5795 82.5713 136.6556 82.6911 136.7018 C82.8109 136.7479 82.9728 136.756 83.1084 136.7226 C83.2441 136.6892 83.3301 136.6202 83.3301 136.5445" style="fill:none; stroke-width:0.1016;" />
      <path d="M83.3301 136.5445 C83.3301 136.5365 83.3291 136.5284 83.3271 136.5204" style="fill:none; stroke-width:0.1016;" />
      <path d="M94.8257 129.3098 L94.8467 129.0056 L94.9156 128.7654 L95.0188 128.5944 L95.143 128.498 L95.2747 128.4816 L95.4006 128.5503 L95.5071 128.7095 L95.5808 128.9646 L95.6084 129.3209" style="fill:none; stroke-width:0.1016;" />
      <path d="M94.8252 129.2734 C94.7954 129.3475 94.8523 129.4237 94.9722 129.4698 C95.092 129.516 95.2538 129.524 95.3895 129.4907 C95.5252 129.4573 95.6112 129.3882 95.6112 129.3126" style="fill:none; stroke-width:0.1016;" />
      <path d="M95.6112 129.3126 C95.6112 129.3046 95.6102 129.2965 95.6082 129.2885" style="fill:none; stroke-width:0.1016;" />
      <path d="M94.2495 145.3363 L94.2495 129.2849" style="fill:none; stroke-width:0.1016;" />
      <path d="M94.2495 129.1967 L94.8929 128.8253" style="fill:none; stroke-width:0.1016;" />
      <path d="M95.3884 128.5392 L102.6339 124.356" style="fill:none; stroke-width:0.1016;" />
      <path d="M102.6609 124.3318 L104.1462 125.1893" style="fill:none; stroke-width:0.1016;" />
      <path d="M95.8371 146.2182 L94.2366 145.2942" style="fill:none; stroke-width:0.1016;" />
      <path d="M96.1239 138.0765 L103.7998 133.6449" style="fill:none; stroke-width:0.1016;" />
      <path d="M96.0586 137.8497 L103.8033 133.3783" style="fill:none; stroke-width:0.1016;" />
      <path d="M95.8317 146.2018 L95.7324 130.0952 L104.155 125.2004 L104.1219 141.4393 L95.8372 146.2073" style="fill:none; stroke-width:0.1016;" />
      <path d="M96.1622 145.6995 L96.0672 130.2865 L103.8202 125.7809 L103.7887 141.2474 L96.1541 145.6974" style="fill:none; stroke-width:0.1016;" />
      <path d="M96.4766 137.928 L96.4766 143.2638" style="fill:none; stroke-width:0.1016;" />
      <path d="M96.7852 137.7076 L96.7852 141.4117" style="fill:none; stroke-width:0.1016;" />
      <path d="M97.138 137.443 L97.138 139.736" style="fill:none; stroke-width:0.1016;" />
      <path d="M97.6231 138.5895 L97.6231 137.1784" style="fill:none; stroke-width:0.1016;" />
      <path d="M98.0641 137.8839 L98.0641 137.002" style="fill:none; stroke-width:0.1016;" />
      <path d="M98.505 137.3548 L98.505 136.7374" style="fill:none; stroke-width:0.1016;" />
      <path d="M96.4766 136.0759 L96.4766 130.0567" style="fill:none; stroke-width:0.1016;" />
      <path d="M96.9175 133.0994 L96.9175 129.7921" style="fill:none; stroke-width:0.1016;" />
      <path d="M97.3585 131.3796 L97.3585 129.6158" style="fill:none; stroke-width:0.1016;" />
      <path d="M97.7554 130.2331 L97.7554 129.3071" style="fill:none; stroke-width:0.1016;" />
      <path d="M98.1082 129.4835 L98.1082 129.1307" style="fill:none; stroke-width:0.1016;" />
      <path d="M94.9993 129.9906 L94.9993 145.16" style="fill:none; stroke-width:0.1016;" />
      <path d="M94.6465 145.4246 L94.6465 129.9024" style="fill:none; stroke-width:0.1016;" />
      <path d="M95.6167 129.9906 L94.2938 129.1968" style="fill:none; stroke-width:0.1016;" />
      <path d="M83.3604 137.1261 L91.4302 132.4077" style="fill:none; stroke-width:0.1016;" />
      <path d="M95.7076 129.806 L103.7774 125.0875" style="fill:none; stroke-width:0.1016;" />
      <path d="M77.0986 116.5768 L77.1103 115.7524 L77.2601 115.2237 L77.5545 114.9638 L78.0001 114.9457 L78.6035 115.1425 L79.3712 115.5274 L80.3099 116.0735 L81.4262 116.7538 L82.7265 117.5414" style="fill:none; stroke-width:0.1016;" />
      <path d="M82.8312 121.67 L85.3866 120.1611" style="fill:none; stroke-width:0.1016;" />
      <path d="M90.4326 117.1816 L92.4637 115.9126" style="fill:none; stroke-width:0.1016;" />
      <path d="M81.1555 120.6999 L82.6107 119.8624" style="fill:none; stroke-width:0.3251;" />
      <path d="M83.0738 119.596 L83.6781 119.2482" style="fill:none; stroke-width:0.3251;" />
      <path d="M85.284 118.3241 L86.8441 117.4263" style="fill:none; stroke-width:0.3251;" />
      <path d="M87.3071 117.1598 L87.5761 117.005" style="fill:none; stroke-width:0.1016;" />
      <path d="M88.9815 116.1963 L90.5041 115.32" style="fill:none; stroke-width:0.3251;" />
      <path d="M81.1665 120.9093 L82.4454 121.6149" style="fill:none; stroke-width:0.1016;" />
      <path d="M85.7967 120.3802 L82.5777 118.6604" style="fill:none; stroke-width:0.1016;" />
      <path d="M90.912 117.5139 L87.9658 115.4716" style="fill:none; stroke-width:0.1016;" />
      <path d="M81.1665 120.9093 L81.134 120.8842 L81.1099 120.86 L81.0941 120.8366 L81.0864 120.8138 L81.0866 120.7915 L81.0946 120.7694 L81.1102 120.7473 L81.1333 120.7252 L81.1638 120.7026" style="fill:none; stroke-width:0.3251;" />
      <path d="M82.7871 121.9787 L85.6379 120.2954" style="fill:none; stroke-width:0.1016;" />
      <path d="M90.6528 117.3342 L92.5078 116.2213" style="fill:none; stroke-width:0.1016;" />
      <path d="M81.1224 121.218 L82.4013 121.9236" style="fill:none; stroke-width:0.1016;" />
      <path d="M81.1224 121.218 L81.1067 121.2061 L81.0938 121.1946 L81.0836 121.1834 L81.0761 121.1725 L81.071 121.1618 L81.0683 121.1514 L81.0678 121.1411 L81.0694 121.1311 L81.073 121.1211" style="fill:none; stroke-width:0.1016;" />
      <path d="M82.7981 122.2984 L85.8254 120.5109" style="fill:none; stroke-width:0.1016;" />
      <path d="M90.9069 117.5104 L92.4858 116.5299" style="fill:none; stroke-width:0.1016;" />
      <path d="M81.1335 121.5377 L82.4123 122.2433" style="fill:none; stroke-width:0.1016;" />
      <path d="M81.1335 121.5377 L81.1124 121.522 L81.0945 121.5068 L81.0799 121.4918 L81.0684 121.4772 L81.06 121.4629 L81.0547 121.4488 L81.0525 121.4349 L81.0533 121.4211 L81.057 121.4074" style="fill:none; stroke-width:0.1016;" />
      <path d="M82.7761 122.6402 L85.9039 120.7933" style="fill:none; stroke-width:0.3251;" />
      <path d="M91.171 117.6832 L92.5519 116.8607" style="fill:none; stroke-width:0.3251;" />
      <path d="M81.1114 121.8795 L82.3902 122.585" style="fill:none; stroke-width:0.3251;" />
      <path d="M81.1114 121.8795 L81.0981 121.8698 L81.0859 121.8602 L81.075 121.8508 L81.0653 121.8416 L81.0568 121.8324 L81.0495 121.8234 L81.0434 121.8145 L81.0385 121.8057 L81.0347 121.797" style="fill:none; stroke-width:0.1016;" />
      <path d="M82.4095 121.9263 L82.4584 121.9546 L82.5074 121.9756 L82.5559 121.9898 L82.6034 121.998 L82.6493 122.0008 L82.6931 121.9988 L82.7342 121.9927 L82.7722 121.983 L82.8064 121.9704" style="fill:none; stroke-width:0.1016;" />
      <path d="M82.4206 122.235 L82.4695 122.2633 L82.5184 122.2842 L82.5669 122.2985 L82.6144 122.3067 L82.6603 122.3095 L82.7041 122.3075 L82.7453 122.3013 L82.7832 122.2917 L82.8174 122.2791" style="fill:none; stroke-width:0.1016;" />
      <path d="M82.3792 122.574 L82.428 122.6028 L82.4767 122.625 L82.5249 122.6411 L82.5719 122.6515 L82.6174 122.6565 L82.6607 122.6567 L82.7015 122.6524 L82.7392 122.644 L82.7733 122.6319" style="fill:none; stroke-width:0.3251;" />
      <path d="M81.0342 121.8023 L81.0894 120.8212" style="fill:none; stroke-width:0.3251;" />
      <path d="M85.8408 120.1156 L82.6217 118.3958" style="fill:none; stroke-width:0.1016;" />
      <path d="M85.3723 118.3682 L83.9612 117.6627" style="fill:none; stroke-width:0.3251;" />
      <path d="M82.6383 118.1919 L83.7407 117.5745" style="fill:none; stroke-width:0.3251;" />
      <path d="M87.974 116.9571 L86.6897 116.0035" style="fill:none; stroke-width:0.1016;" />
      <path d="M87.8748 117.1776 L86.596 116.2516" style="fill:none; stroke-width:0.1016;" />
      <path d="M85.7692 120.3085 L85.9897 121.1023 L86.8716 121.6314 L88.0622 120.9259" style="fill:none; stroke-width:0.3251;" />
      <path d="M87.489 120.3526 L88.5914 120.8818 L89.3852 120.97 L90.5455 121.7555" style="fill:none; stroke-width:0.1016;" />
      <path d="M87.5331 120.6613 L88.6355 121.1905 L89.4293 121.2787 L90.5124 122.0201" style="fill:none; stroke-width:0.3251;" />
      <path d="M91.8794 121.1491 L90.4435 120.2203 L90.4435 119.603" style="fill:none; stroke-width:0.3251;" />
      <path d="M90.5096 118.4564 L91.1711 118.0155" style="fill:none; stroke-width:0.1016;" />
      <path d="M87.4669 120.3526 L86.4968 121.0141" style="fill:none; stroke-width:0.1016;" />
      <path d="M83.0572 121.0141 L84.0714 120.3967" style="fill:none; stroke-width:0.1016;" />
      <path d="M82.528 121.0141 L81.9989 120.6613" style="fill:none; stroke-width:0.1016;" />
      <path d="M83.0131 120.6613 L83.851 120.1762" style="fill:none; stroke-width:0.1016;" />
      <path d="M84.2037 119.9998 L83.41 119.4707" style="fill:none; stroke-width:0.1016;" />
      <path d="M86.6897 116.0035 L86.6734 115.9402 L86.6701 115.8884 L86.6788 115.846 L86.6983 115.8109 L86.7275 115.781 L86.7653 115.7541 L86.8104 115.728 L86.8619 115.7007 L86.9185 115.67" style="fill:none; stroke-width:0.1016;" />
      <path d="M87.9685 115.4744 L87.8973 115.4136 L87.8261 115.3722 L87.7555 115.3479 L87.686 115.3382 L87.6181 115.341 L87.5524 115.3538 L87.4893 115.3746 L87.4294 115.4008 L87.3732 115.4303" style="fill:none; stroke-width:0.3251;" />
      <path d="M86.6015 116.2681 L86.5543 116.2085 L86.5285 116.1478 L86.5214 116.0871 L86.5305 116.0273 L86.5533 115.9696 L86.5873 115.915 L86.63 115.8645 L86.6787 115.8193 L86.7311 115.7803" style="fill:none; stroke-width:0.3251;" />
      <path d="M87.3815 115.4275 L86.8854 115.6921" style="fill:none; stroke-width:0.3251;" />
      <path d="M85.9208 120.1735 L86.0779 120.7936 L86.9598 121.3228 L87.833 120.8053" style="fill:none; stroke-width:0.1016;" />
      <path d="M88.1011 120.6464 L88.1504 120.6172" style="fill:none; stroke-width:0.1016;" />
      <path d="M90.9203 117.5001 L91.2896 117.9796 L91.8629 118.2442" style="fill:none; stroke-width:0.3251;" />
      <path d="M91.8629 118.2442 L90.8927 118.9057 L90.4959 118.8175" style="fill:none; stroke-width:0.1016;" />
      <path d="M90.4959 119.2144 L90.8927 119.2585 L91.9511 118.6852 L91.9952 118.2001" style="fill:none; stroke-width:0.3251;" />
      <path d="M88.0264 116.9654 L88.0705 117.5828 L86.3948 118.4647 L85.2924 118.3765" style="fill:none; stroke-width:0.1016;" />
      <path d="M82.5749 118.6135 L82.5749 118.2167" style="fill:none; stroke-width:0.3251;" />
      <path d="M83.964 117.6654 L83.6332 117.6654" style="fill:none; stroke-width:0.3251;" />
      <path d="M86.4003 120.2121 L87.7288 119.4239" style="fill:none; stroke-width:0.1016;" />
      <path d="M89.6194 118.2718 L90.8101 117.5221" style="fill:none; stroke-width:0.1016;" />
      <path d="M90.2173 121.0967 C90.3179 121.1476 90.47 121.1631 90.6023 121.1359 C90.7347 121.1087 90.8211 121.0443 90.8211 120.9727" style="fill:none; stroke-width:0.1016;" />
      <path d="M90.8211 120.9727 C90.8211 120.9152 90.7649 120.8612 90.6705 120.8282" style="fill:none; stroke-width:0.1016;" />
      <path d="M90.3517 120.5983 C90.3055 120.5275 90.1751 120.4788 90.0261 120.4767 C89.8771 120.4746 89.7415 120.5196 89.6875 120.5891 C89.6335 120.6586 89.6727 120.7376 89.7854 120.7864" style="fill:none; stroke-width:0.1016;" />
      <path d="M90.2175 121.0968 L89.7434 120.755" style="fill:none; stroke-width:0.1016;" />
      <path d="M90.7687 120.8873 L90.2947 120.5455" style="fill:none; stroke-width:0.1016;" />
      <path d="M86.2653 119.8234 L85.3916 119.2034 L86.2295 118.6742 L87.059 119.2943 L86.2653 119.8234" style="fill:none; stroke-width:0.1016;" />
      <path d="M89.6167 118.0596 L88.6989 117.3954 L89.5285 116.913 L90.4104 117.5304 L89.6167 118.0596" style="fill:none; stroke-width:0.1016;" />
      <path d="M82.5666 121.0416 L83.0517 120.9975" style="fill:none; stroke-width:0.1016;" />
      <path d="M84.1762 120.3581 L84.1982 119.9833" style="fill:none; stroke-width:0.1016;" />
      <path d="M82.0154 120.6668 L81.9934 120.2699" style="fill:none; stroke-width:0.1016;" />
      <path d="M82.5225 120.733 L82.2139 120.4904" style="fill:none; stroke-width:0.1016;" />
      <path d="M90.9506 116.4721 L91.9649 115.8547" style="fill:none; stroke-width:0.1016;" />
      <path d="M90.4214 116.4721 L89.8923 116.1193" style="fill:none; stroke-width:0.1016;" />
      <path d="M90.9065 116.1193 L91.7444 115.6342" style="fill:none; stroke-width:0.1016;" />
      <path d="M92.0971 115.4578 L91.3034 114.9287" style="fill:none; stroke-width:0.3251;" />
      <path d="M90.46 116.4996 L90.9451 116.4555" style="fill:none; stroke-width:0.1016;" />
      <path d="M92.0696 115.8161 L92.0916 115.4413" style="fill:none; stroke-width:0.1016;" />
      <path d="M89.9088 116.1248 L89.8868 115.7279" style="fill:none; stroke-width:0.1016;" />
      <path d="M90.4159 116.1909 L90.1073 115.9484" style="fill:none; stroke-width:0.1016;" />
      <path d="M90.5037 115.6374 C90.4759 115.683 90.504 115.7324 90.5755 115.7639 C90.6471 115.7953 90.7488 115.8029 90.8356 115.7833 C90.9224 115.7636 90.9782 115.7204 90.9782 115.6728" style="fill:none; stroke-width:0.1016;" />
      <path d="M90.9782 115.6728 C90.9782 115.6608 90.9746 115.6489 90.9676 115.6374" style="fill:none; stroke-width:0.1016;" />
      <path d="M90.5041 115.7059 L90.5041 114.846" style="fill:none; stroke-width:0.1016;" />
      <path d="M90.9672 115.6838 L90.9672 114.8019" style="fill:none; stroke-width:0.1016;" />
      <path d="M92.5519 116.8827 L92.5519 115.8464" style="fill:none; stroke-width:0.3251;" />
      <path d="M92.5519 115.8464 L92.0889 115.5157" style="fill:none; stroke-width:0.1016;" />
      <path d="M82.6103 120.1794 C82.5825 120.225 82.6106 120.2745 82.6821 120.3059 C82.7537 120.3373 82.8554 120.3449 82.9422 120.3253 C83.029 120.3057 83.0848 120.2624 83.0848 120.2148" style="fill:none; stroke-width:0.1016;" />
      <path d="M83.0848 120.2148 C83.0848 120.2028 83.0812 120.1909 83.0742 120.1794" style="fill:none; stroke-width:0.1016;" />
      <path d="M82.6107 120.2479 L82.6107 119.388" style="fill:none; stroke-width:0.1016;" />
      <path d="M83.0738 120.2258 L83.0738 119.3439" style="fill:none; stroke-width:0.1016;" />
      <path d="M82.6107 119.388 L82.6345 119.3127 L82.6753 119.2515 L82.7288 119.206 L82.7906 119.1777 L82.8564 119.1684 L82.9217 119.1796 L82.9821 119.2128 L83.0333 119.2698 L83.071 119.3522" style="fill:none; stroke-width:0.1016;" />
      <path d="M86.8436 117.8423 C86.8158 117.8878 86.8439 117.9373 86.9155 117.9688 C86.987 118.0002 87.0888 118.0078 87.1755 117.9882 C87.2623 117.9685 87.3181 117.9253 87.3181 117.8777" style="fill:none; stroke-width:0.1016;" />
      <path d="M87.3181 117.8777 C87.3181 117.8657 87.3145 117.8537 87.3075 117.8423" style="fill:none; stroke-width:0.1016;" />
      <path d="M86.8441 117.9107 L86.8441 117.0508" style="fill:none; stroke-width:0.1016;" />
      <path d="M87.3071 117.8887 L87.3071 117.0067" style="fill:none; stroke-width:0.1016;" />
      <path d="M86.8441 117.0508 L86.8678 116.9756 L86.9087 116.9144 L86.9622 116.8688 L87.024 116.8406 L87.0897 116.8312 L87.155 116.8424 L87.2154 116.8757 L87.2667 116.9327 L87.3043 117.015" style="fill:none; stroke-width:0.1016;" />
      <path d="M82.7623 117.5442 L81.263 116.9709 L82.0126 116.574 L82.7623 117.5442 L82.7623 117.5442 Z" style="stroke-width:0.1016; fill-rule:evenodd; stroke:none;" />
      <path d="M82.7623 117.5442 L81.263 116.9709 L82.0126 116.574 L82.7623 117.5442 L82.7623 117.5442 Z" style="fill:none; stroke-width:0.1016; fill-rule:evenodd;" />
      <path d="M90.5565 122.0311 L91.1022 121.9815 L91.8739 121.4964 L91.8794 121.2373" style="fill:none; stroke-width:0.3251;" />
      <path d="M90.6006 121.7665 L91.0416 121.7224 L91.8794 121.1932" style="fill:none; stroke-width:0.1016;" />
      <path d="M90.3076 120.8409 C90.271 120.7847 90.1805 120.7414 90.0666 120.7256 C89.9527 120.7098 89.8306 120.7235 89.7413 120.7622" style="fill:none; stroke-width:0.1016;" />
      <path d="M90.6778 121.105 L90.2506 120.7991" style="fill:none; stroke-width:0.1016;" />
      <path d="M88.6107 119.953 L88.5225 119.0711" style="fill:none; stroke-width:0.1016;" />
      <path d="M89.4485 119.512 L89.5367 118.4537" style="fill:none; stroke-width:0.1016;" />
      <path d="M88.2579 119.9089 L88.2391 119.8066 L88.1922 119.684 L88.1319 119.5498 L88.0727 119.4125 L88.0291 119.2808 L88.0157 119.1634 L88.047 119.0689 L88.1376 119.0058 L88.302 118.9829" style="fill:none; stroke-width:0.1016;" />
      <path d="M89.184 119.4239 L89.0674 119.3012 L88.9734 119.186 L88.9047 119.0766 L88.8642 118.9715 L88.8547 118.869 L88.8791 118.7675 L88.9402 118.6656 L89.0409 118.5615 L89.184 118.4537" style="fill:none; stroke-width:0.1016;" />
      <path d="M90.8855 112.4785 C90.8855 112.6562 90.5975 112.8002 90.2423 112.8002 C89.8871 112.8002 89.5991 112.6562 89.5991 112.4785 C89.5991 112.3009 89.8871 112.1569 90.2423 112.1569 C90.5975 112.1569 90.8855 112.3009 90.8855 112.4785 Z" style="fill:none; stroke-width:0.1016;" />
      <path d="M89.4926 113.2282 C89.4926 113.3621 89.6355 113.4859 89.8675 113.5528 C90.0994 113.6198 90.3852 113.6198 90.6171 113.5528 C90.8491 113.4859 90.992 113.3621 90.992 113.2282" style="fill:none; stroke-width:0.1016;" />
      <path d="M90.992 113.2282 C90.992 113.2128 90.9901 113.1975 90.9863 113.1822" style="fill:none; stroke-width:0.1016;" />
      <path d="M89.4873 112.8485 C89.1433 113.0195 89.0722 113.2848 89.3139 113.495 C89.5556 113.7053 90.0498 113.8081 90.5184 113.7455 C90.9871 113.683 91.3131 113.4707 91.3131 113.2282" style="fill:none; stroke-width:0.1016;" />
      <path d="M91.3131 113.2282 C91.3131 113.083 91.1952 112.944 90.9863 112.8431" style="fill:none; stroke-width:0.1016;" />
      <path d="M90.5454 112.4785 C90.5454 112.5623 90.4097 112.6301 90.2423 112.6301 C90.0749 112.6301 89.9392 112.5623 89.9392 112.4785 C89.9392 112.3948 90.0749 112.327 90.2423 112.327 C90.4097 112.327 90.5454 112.3948 90.5454 112.4785 Z" style="fill:none; stroke-width:0.1016;" />
      <path d="M89.4871 113.2227 L89.4871 112.6274" style="fill:none; stroke-width:0.1016;" />
      <path d="M90.9864 113.2447 L90.9864 112.6053" style="fill:none; stroke-width:0.1016;" />
      <path d="M89.4926 112.6329 L89.4927 112.5769 L89.5001 112.526 L89.5151 112.4798 L89.5377 112.4376 L89.568 112.399 L89.6061 112.3634 L89.6522 112.3302 L89.7062 112.299 L89.7682 112.2691" style="fill:none; stroke-width:0.1016;" />
      <path d="M90.9864 112.6274 L90.9817 112.5622 L90.9717 112.5089 L90.9572 112.4659 L90.9393 112.4316 L90.9186 112.4044 L90.8962 112.3828 L90.8728 112.3651 L90.8493 112.3498 L90.8266 112.3352" style="fill:none; stroke-width:0.1016;" />
      <path d="M89.1921 113.333 C89.1124 113.5329 89.2667 113.7382 89.5902 113.8623 C89.9136 113.9865 90.35 114.008 90.7158 113.9179 C91.0815 113.8277 91.3131 113.6415 91.3131 113.4377" style="fill:none; stroke-width:0.1016;" />
      <path d="M91.3131 113.4377 C91.3131 113.4025 91.3062 113.3674 91.2924 113.333" style="fill:none; stroke-width:0.1016;" />
      <path d="M89.7903 112.7321 L89.7903 113.5038" style="fill:none; stroke-width:0.1016;" />
      <path d="M90.6061 112.7542 L90.6061 113.5259" style="fill:none; stroke-width:0.1016;" />
      <path d="M85.7664 157.8436 L85.7664 157.0498" style="fill:none; stroke-width:0.1016;" />
      <path d="M86.2956 157.4908 L86.2956 156.5647" style="fill:none; stroke-width:0.1016;" />
      <path d="M86.7807 157.2703 L86.7807 156.0356" style="fill:none; stroke-width:0.1016;" />
      <path d="M87.2216 156.9175 L87.2216 155.9474" style="fill:none; stroke-width:0.1016;" />
      <path d="M87.7067 156.6529 L87.7067 155.6828" style="fill:none; stroke-width:0.1016;" />
      <path d="M88.2359 156.3002 L88.2359 155.4182" style="fill:none; stroke-width:0.1016;" />
      <path d="M88.7651 155.9915 L88.7651 155.0213" style="fill:none; stroke-width:0.1016;" />
      <path d="M89.3383 155.6828 L89.3383 154.7126" style="fill:none; stroke-width:0.1016;" />
      <path d="M89.8675 155.1977 L89.8675 154.3599" style="fill:none; stroke-width:0.1016;" />
      <path d="M91.014 154.4481 L91.014 153.7866" style="fill:none; stroke-width:0.1016;" />
      <path d="M85.9869 157.2262 L90.029 154.8925" style="fill:none; stroke-width:0.1016;" />
      <path d="M86.1633 156.7411 L90.035 154.5058" style="fill:none; stroke-width:0.1016;" />
      <path d="M112.4453 124.7266 L113.2914 125.0042 L114.184 125.3075 L115.1238 125.6363 L116.1114 125.9901 L117.1478 126.3686 L118.2334 126.7714 L119.3692 127.1981 L120.5558 127.6485 L121.7939 128.122 L122.9121 128.6379 L124.0073 129.2966 L125.0542 130.0558 L126.0274 130.8733 L126.9017 131.7065 L127.6519 132.5132 L128.2526 133.2511 L128.6785 133.8777 L128.9046 134.3508" style="fill:none; stroke-width:0.1016;" />
      <path d="M107.771 131.4734 L108.757 132.0261 L109.673 132.5733 L110.5223 133.1193 L111.3083 133.668 L112.0342 134.2235 L112.7036 134.7899 L113.3197 135.3711 L113.8859 135.9712 L114.4056 136.5943" style="fill:none; stroke-width:0.1016;" />
      <path d="M115.8253 142.0966 L116.1262 143.3705 L116.3787 144.419 L116.5489 145.2764 L116.6029 145.9769 L116.5069 146.5544 L116.2269 147.0433 L115.7291 147.4775 L114.9796 147.8912 L113.9446 148.3186" style="fill:none; stroke-width:0.1016;" />
      <path d="M120.2284 158.3948 L120.9655 158.0587 L121.8438 157.4253 L122.8146 156.5693 L123.8293 155.5654 L124.8391 154.4884 L125.7955 153.4129 L126.6498 152.4136 L127.3532 151.5652 L127.8572 150.9424 L128.2806 150.6866 L129.3498 150.0831 L130.8792 149.2325 L132.6831 148.2359 L134.5759 147.1941 L136.3718 146.208 L137.8854 145.3784 L138.9308 144.8062 L139.3225 144.5924 L139.8681 144.3587 L140.5856 144.0018 L141.4026 143.5482 L142.247 143.0241 L143.0464 142.456 L143.7287 141.8703 L144.2215 141.2933 L144.4525 140.7513 L144.3496 140.2709" style="fill:none; stroke-width:0.1016;" />
      <path d="M126.1705 139.7306 L125.4859 138.2984 L124.9954 136.971 L124.619 135.7488 L124.2762 134.6323 L123.887 133.6217 L123.3712 132.7175 L122.6484 131.92 L121.6386 131.2296 L120.2615 130.6466" style="fill:none; stroke-width:0.1016;" />
      <path d="M131.4291 134.5823 L130.7578 134.7088 L130.0741 134.6588 L129.3691 134.4561 L128.6339 134.1245 L127.8598 133.6877 L127.0379 133.1694 L126.1594 132.5933 L125.2154 131.9834 L124.1972 131.3632" style="fill:none; stroke-width:0.1016;" />
      <path d="M124.6381 156.8955 L125.5743 156.0992 L126.3293 155.3301 L126.9541 154.5926 L127.4993 153.8911 L128.0159 153.2298 L128.5546 152.6132 L129.1663 152.0455 L129.9017 151.5312 L130.8118 151.0746" style="fill:none; stroke-width:0.1016;" />
      <path d="M115.7085 134.2075 L115.6828 134.7647 L115.7167 135.2683 L115.8 135.7299 L115.9225 136.1609 L116.074 136.573 L116.2443 136.9779 L116.4233 137.387 L116.6009 137.812 L116.7668 138.2644 L116.8555 138.375 L117.0385 138.5284 L117.2796 138.7217 L117.5425 138.9521 L117.7909 139.2165 L117.9884 139.5122 L118.0989 139.8362 L118.086 140.1856 L117.9133 140.5575 L117.7877 140.7046 L117.5902 140.894 L117.3392 141.1095 L117.0532 141.3349 L116.7505 141.5541 L116.4496 141.7509 L116.1689 141.9092 L115.9267 142.0129 L115.7415 142.0457 L115.0421 141.8967 L114.5901 141.5476 L114.3414 141.0131 L114.252 140.308 L114.2777 139.4469 L114.3745 138.4445 L114.4982 137.3155 L114.6048 136.0747 L114.6501 134.7366" style="fill:none; stroke-width:0.1016;" />
      <path d="M119.3685 131.297 L119.5286 131.1767 L119.6331 131.0483 L119.6919 130.9075 L119.7148 130.7505 L119.7115 130.573 L119.6919 130.3711 L119.6658 130.1405 L119.6429 129.8773 L119.6331 129.5773" style="fill:none; stroke-width:0.1016;" />
      <path d="M116.3589 141.9576 L116.7256 143.2623 L116.9406 144.2944 L117.0873 145.0525 L117.2493 145.5352 L117.51 145.7409 L117.9529 145.6682 L118.6615 145.3158 L119.7192 144.682 L121.2096 143.7655 L122.3359 143.1127 L123.2431 142.6324 L123.9433 142.2724 L124.4485 141.9803 L124.7709 141.7039 L124.9224 141.3908 L124.9152 140.9887 L124.7613 140.4454 L124.4728 139.7086 L124.2515 139.0576 L124.0339 138.2426 L123.8056 137.3167 L123.5522 136.3331 L123.2595 135.345 L122.913 134.4055 L122.4985 133.5678 L122.0016 132.8851 L121.408 132.4105 L120.8048 132.0822 L120.1531 131.7318 L119.4503 131.3619 L118.6934 130.9752 L117.8796 130.5744 L117.0062 130.162 L116.0703 129.7409 L115.069 129.3136 L113.9997 128.8827 L113.5478 128.784 L113.0845 128.816 L112.6178 128.9512 L112.156 129.1619 L111.7072 129.4205 L111.2798 129.6994 L110.8819 129.9711 L110.5217 130.2078 L110.2073 130.382 L109.284 130.8801 L108.8768 131.2896 L108.9138 131.6592 L109.3232 132.0375 L110.0331 132.4732 L110.9717 133.0148 L112.067 133.711 L113.2473 134.6105 L114.4407 135.7619" style="fill:none; stroke-width:0.1016;" />
      <path d="M118.9716 130.0623 L112.798 127.4606" style="fill:none; stroke-width:0.1016;" />
      <path d="M119.4126 128.5189 L119.2362 127.2401" style="fill:none; stroke-width:0.1016;" />
      <path d="M125.95 141.3181 L126.208 140.8223 L126.4194 140.3006 L126.6229 139.747 L126.8569 139.1553 L127.1598 138.5193 L127.5702 137.8328 L128.1265 137.0898 L128.8671 136.2839 L129.8306 135.4091" style="fill:none; stroke-width:0.1016;" />
      <path d="M131.1645 136.7431 L130.8643 136.9183 L130.6064 137.0651 L130.3849 137.1885 L130.1939 137.2934 L130.0275 137.3847 L129.8797 137.4674 L129.7446 137.5464 L129.6163 137.6267 L129.4888 137.7132 L128.9775 138.041 L128.644 138.1818 L128.481 138.1507 L128.4814 137.9629 L128.6378 137.6333 L128.9431 137.1772 L129.39 136.6095 L129.9712 135.9453 L130.6795 135.1997 L131.0664 134.8578 L131.5691 134.487 L132.1552 134.0993 L132.7926 133.7073 L133.449 133.3233 L134.092 132.9594 L134.6894 132.6282 L135.209 132.3419 L135.6183 132.1129 L137.0969 131.269 L138.5097 130.465 L139.8757 129.6898 L141.2142 128.9326 L142.5443 128.1825 L143.8851 127.4287 L145.2559 126.6601 L146.6758 125.8659 L148.164 125.0352" style="fill:none; stroke-width:0.1016;" />
      <path d="M133.1489 151.3834 L132.8989 151.2766 L132.606 151.1093 L132.2934 150.8907 L131.9841 150.6297 L131.7013 150.3352 L131.468 150.0163 L131.3075 149.6818 L131.2427 149.3407 L131.2968 149.0021" style="fill:none; stroke-width:0.1016;" />
      <path d="M131.2417 149.0793 L130.8443 148.7624 L130.4772 148.3719 L130.1486 147.9282 L129.8667 147.4519 L129.6397 146.9634 L129.4757 146.4832 L129.3831 146.032 L129.3701 145.63 L129.4447 145.2979" style="fill:none; stroke-width:0.1016;" />
      <path d="M132.5205 150.1376 L137.8563 147.139" style="fill:none; stroke-width:0.1016;" />
      <path d="M142.4203 137.8565 L128.3092 145.9704" style="fill:none; stroke-width:0.1016;" />
      <path d="M119.5394 149.173 L119.2778 149.2951 L119.0572 149.3791 L118.8686 149.4192 L118.7031 149.4099 L118.5516 149.3454 L118.4054 149.2202 L118.2553 149.0285 L118.0924 148.7648 L117.9078 148.4234 L117.7832 148.1644 L117.6712 147.8913 L117.5766 147.6127 L117.5042 147.3372 L117.4588 147.0733 L117.4452 146.8298 L117.4682 146.6151 L117.5326 146.4379 L117.6432 146.3067 L117.8547 146.1582 L118.1344 145.9844 L118.4728 145.7872 L118.8605 145.568 L119.2879 145.3286 L119.7455 145.0705 L120.2238 144.7955 L120.7131 144.5051 L121.2041 144.201 L121.8345 143.8074 L122.435 143.4448 L122.9964 143.1163 L123.5099 142.8252 L123.9663 142.5746 L124.3566 142.3676 L124.6717 142.2075 L124.9027 142.0973 L125.0405 142.0403 L125.1625 142.058 L125.2633 142.1826 L125.3469 142.3873 L125.4171 142.6455 L125.4777 142.9305 L125.5326 143.2155 L125.5857 143.4739 L125.6409 143.6791 L125.702 143.8042 L126.0538 144.2713 L126.2307 144.6591 L126.2379 144.991 L126.0807 145.2902 L125.7644 145.58 L125.2941 145.8837 L124.6751 146.2247 L123.9127 146.6262 L123.0121 147.1115 L122.5484 147.3739 L122.0953 147.6406 L121.6565 147.9062 L121.2356 148.1651 L120.8366 148.4119 L120.4632 148.641 L120.119 148.847 L119.808 149.0243 L119.5339 149.1675" style="fill:none; stroke-width:0.1016;" />
      <path d="M133.3088 153.2189 L135.4433 151.751 L137.6723 150.2032 L139.907 148.6263 L142.059 147.0712 L144.0397 145.5887 L145.7605 144.2296 L147.1329 143.0448 L148.0683 142.0849 L148.4782 141.4009 L148.6472 140.7285 L148.8725 139.9482 L149.1371 139.0902 L149.4238 138.1845 L149.7157 137.2612 L149.9958 136.3503 L150.2471 135.4818 L150.4524 134.6859 L150.5949 133.9926 L148.3018 118.1176" style="fill:none; stroke-width:0.1016;" />
      <path d="M132.7217 152.3628 L134.7399 150.9804 L136.8515 149.5293 L138.9758 148.0534 L141.0322 146.5968 L142.94 145.2034 L144.6186 143.9172 L145.9873 142.7822 L146.9655 141.8423 L147.4725 141.1414 L147.4919 141.0719 L147.5464 140.8781 L147.6301 140.5824 L147.737 140.2073 L147.8615 139.7749 L147.9978 139.3078 L148.1398 138.8282 L148.282 138.3586 L148.4183 137.9212 L148.5773 137.4207 L148.7354 136.9208 L148.8892 136.4279 L149.0356 135.9483 L149.1714 135.4884 L149.2933 135.0546 L149.398 134.6532 L149.4824 134.2906 L149.5432 133.9732 L147.2744 118.266" style="fill:none; stroke-width:0.1016;" />
      <path d="M137.3437 145.1712 L133.8159 143.3191" style="fill:none; stroke-width:0.1016;" />
      <path d="M139.0193 144.2893 L136.1971 142.8782" style="fill:none; stroke-width:0.1016;" />
      <path d="M140.4305 143.4073 L137.5201 141.8198" style="fill:none; stroke-width:0.1016;" />
      <path d="M143.0763 144.7302 L142.9906 144.5166 L142.8932 144.3302 L142.7932 144.1602 L142.6994 143.9958 L142.6207 143.8262 L142.5661 143.6404 L142.5443 143.4278 L142.5645 143.1773 L142.6353 142.8782" style="fill:none; stroke-width:0.1016;" />
      <path d="M142.3377 142.7128 L142.0784 142.2687 L141.8326 141.8215 L141.604 141.3745 L141.3961 140.9308 L141.2126 140.4938 L141.057 140.0666 L140.9331 139.6525 L140.8443 139.2547 L140.7943 138.8763" style="fill:none; stroke-width:0.1016;" />
      <path d="M146.3395 141.908 L145.6454 141.5514 L145.0943 141.1185 L144.6569 140.6059 L144.3038 140.01 L144.0059 139.3273 L143.7337 138.5542 L143.4579 137.6872 L143.1494 136.7227 L142.7786 135.6572 L142.4628 134.811 L142.1746 134.0465 L141.9204 133.3576 L141.7063 132.7378 L141.5386 132.1808 L141.4235 131.6803 L141.3671 131.2298 L141.3758 130.8231 L141.4557 130.4538" style="fill:none; stroke-width:0.1016;" />
      <path d="M147.486 141.0261 L147.3018 140.8282 L147.0833 140.6722 L146.838 140.5558 L146.5729 140.4765 L146.2953 140.4319 L146.0124 140.4196 L145.7314 140.4371 L145.4595 140.4821 L145.204 140.552" style="fill:none; stroke-width:0.1016;" />
      <path d="M147.0561 140.2874 L146.7281 140.2249 L146.4444 139.9896 L146.197 139.5982 L145.9779 139.0675 L145.7791 138.4141 L145.5927 137.6547 L145.4106 136.806 L145.2249 135.8847 L145.0276 134.9076 L144.7483 133.863 L144.4282 132.9612 L144.145 132.1557 L143.9764 131.3999 L144.0002 130.6472 L144.2941 129.8513 L144.936 128.9656 L146.0034 127.9435 L147.5742 126.7386" style="fill:none; stroke-width:0.1016;" />
      <path d="M144.9284 140.5851 L145.1097 140.2572 L145.121 139.6892 L144.9907 138.9064 L144.7471 137.9339 L144.4185 136.7973 L144.0335 135.5218 L143.6203 134.1327 L143.2072 132.6554 L142.8227 131.1152 L142.81 130.6466 L142.9496 130.0381 L143.2437 129.3395 L143.6943 128.6003 L144.3035 127.8702 L145.0733 127.1987 L146.006 126.6357 L147.1035 126.2305 L148.368 126.033" style="fill:none; stroke-width:0.1016;" />
      <path d="M143.396 129.5277 L143.6918 129.2411 L143.9767 128.9763 L144.2482 128.725 L144.5034 128.4787 L144.7397 128.2291 L144.9543 127.9679 L145.1445 127.6867 L145.3077 127.3771 L145.441 127.0308" style="fill:none; stroke-width:0.1016;" />
      <path d="M142.5306 129.8089 L141.7984 129.6112 L141.4647 129.4001 L141.4576 129.1752 L141.7053 128.9361 L142.1359 128.6826 L142.6776 128.4141 L143.2585 128.1304 L143.8067 127.8311 L144.2504 127.5158" style="fill:none; stroke-width:0.1016;" />
      <path d="M144.3661 130.5861 L144.9965 130.3244 L145.5841 130.1379 L146.131 130.0147 L146.639 129.9429 L147.1099 129.9107 L147.5456 129.9063 L147.9479 129.9178 L148.3188 129.9333 L148.6601 129.9412" style="fill:none; stroke-width:0.1016;" />
      <path d="M144.4984 131.0711 L144.9112 130.943 L145.3303 130.8312 L145.7527 130.7363 L146.1758 130.6587 L146.5967 130.5986 L147.0126 130.5565 L147.4207 130.5328 L147.8183 130.5278 L148.2026 130.542" style="fill:none; stroke-width:0.1016;" />
      <path d="M146.3064 137.9944 L147.5411 137.377" style="fill:none; stroke-width:0.1016;" />
      <path d="M146.0418 137.377 L147.9821 136.4069" style="fill:none; stroke-width:0.1016;" />
      <path d="M145.6009 135.7013 L148.0703 134.4666" style="fill:none; stroke-width:0.1016;" />
      <path d="M145.0717 133.9374 L146.8356 133.1437" style="fill:none; stroke-width:0.1016;" />
      <path d="M146.2182 137.2006 L145.8654 135.7895" style="fill:none; stroke-width:0.1016;" />
      <path d="M147.5411 136.5833 L147.1884 135.3486" style="fill:none; stroke-width:0.1016;" />
      <path d="M145.7773 135.6131 L145.4245 134.2902" style="fill:none; stroke-width:0.1016;" />
      <path d="M145.3363 133.7611 L144.9835 132.6145" style="fill:none; stroke-width:0.1016;" />
      <path d="M144.7189 132.3499 L146.3946 131.5562" style="fill:none; stroke-width:0.1016;" />
      <path d="M146.4828 133.2319 L146.3064 132.3499" style="fill:none; stroke-width:0.1016;" />
      <path d="M147.012 134.9076 L146.6592 133.6729" style="fill:none; stroke-width:0.1016;" />
      <path d="M144.1898 138.3472 L143.7488 136.7597" style="fill:none; stroke-width:0.1016;" />
      <path d="M143.6606 136.5833 L143.3078 135.2604" style="fill:none; stroke-width:0.1016;" />
      <path d="M143.2196 134.7312 L142.8668 133.4965" style="fill:none; stroke-width:0.1016;" />
      <path d="M144.9284 136.0651 L144.4984 136.2305" style="fill:none; stroke-width:0.1016;" />
      <path d="M144.3992 134.3013 L143.9693 134.4666" style="fill:none; stroke-width:0.1016;" />
      <path d="M144.0905 132.7137 L143.6606 132.8791" style="fill:none; stroke-width:0.1016;" />
      <path d="M145.4135 137.6967 L144.9835 137.8621" style="fill:none; stroke-width:0.1016;" />
      <path d="M145.6781 138.4464 L145.2481 138.6117" style="fill:none; stroke-width:0.1016;" />
      <path d="M144.7079 138.8874 L144.278 139.0527" style="fill:none; stroke-width:0.1016;" />
      <path d="M144.311 138.2259 L144.0464 138.3582" style="fill:none; stroke-width:0.1016;" />
      <path d="M143.385 138.711 L142.3708 139.2401" style="fill:none; stroke-width:0.1016;" />
      <path d="M143.7819 139.3283 L142.7676 139.9016" style="fill:none; stroke-width:0.1016;" />
      <path d="M142.5912 139.1078 L142.5471 138.4023" style="fill:none; stroke-width:0.1016;" />
      <path d="M142.0621 139.2842 L142.018 138.6228" style="fill:none; stroke-width:0.1016;" />
      <path d="M138.8871 138.0495 L142.459 135.9328" style="fill:none; stroke-width:0.1016;" />
      <path d="M136.9909 140.563 L136.5499 136.0651" style="fill:none; stroke-width:0.1016;" />
      <path d="M136.3735 135.0068 L136.2853 134.6099" style="fill:none; stroke-width:0.1016;" />
      <path d="M136.2412 133.8603 L136.0648 132.4051" style="fill:none; stroke-width:0.1016;" />
      <path d="M137.961 134.0367 L137.9169 133.5516" style="fill:none; stroke-width:0.1016;" />
      <path d="M139.0194 139.4165 L138.9753 138.4464" style="fill:none; stroke-width:0.1016;" />
      <path d="M137.8728 133.0224 L137.7846 132.1405" style="fill:none; stroke-width:0.1016;" />
      <path d="M135.4695 141.2907 L134.9404 136.6164" style="fill:none; stroke-width:0.1016;" />
      <path d="M134.6758 135.1171 L134.4994 133.4414" style="fill:none; stroke-width:0.1016;" />
      <path d="M134.323 141.908 L133.882 137.4101" style="fill:none; stroke-width:0.1016;" />
      <path d="M132.9119 142.6136 L132.3827 138.2039" style="fill:none; stroke-width:0.1016;" />
      <path d="M131.7654 143.4955 L133.1765 142.7018" style="fill:none; stroke-width:0.1016;" />
      <path d="M136.0869 142.2608 L136.7925 141.8198" style="fill:none; stroke-width:0.1016;" />
      <path d="M137.5862 141.3789 L139.3501 140.3205" style="fill:none; stroke-width:0.1016;" />
      <path d="M132.2449 138.1102 L132.2725 136.8368 L132.9781 136.4841 L133.4631 136.8368 L133.419 138.1157 L132.8458 137.7629 L132.2725 138.1157" style="fill:none; stroke-width:0.1016;" />
      <path d="M132.8458 137.7188 L132.8458 136.7486" style="fill:none; stroke-width:0.1016;" />
      <path d="M132.2449 138.1102 L132.708 138.3747" style="fill:none; stroke-width:0.1016;" />
      <path d="M132.5977 138.1983 L132.7505 138.3727 L132.9305 138.4975 L133.1222 138.5544 L133.3103 138.5249 L133.4792 138.3905 L133.6137 138.1327 L133.6983 137.7331 L133.7175 137.1732 L133.6561 136.4345 L133.6528 136.3697 L133.6587 136.2961 L133.6748 136.2173 L133.7019 136.1371 L133.7411 136.0592 L133.7932 135.9872 L133.8591 135.925 L133.9399 135.8763 L134.0364 135.8447 L134.2096 135.8067 L134.3773 135.7653 L134.5407 135.719 L134.701 135.6663 L134.8594 135.6057 L135.0169 135.5358 L135.175 135.455 L135.3346 135.3618 L135.4971 135.2549 L135.7902 135.0163 L136.0224 134.7682 L136.2185 134.5192 L136.403 134.2779 L136.6004 134.053 L136.8353 133.8532 L137.1323 133.6871 L137.5159 133.5635 L138.0107 133.491" style="fill:none; stroke-width:0.1016;" />
      <path d="M130.8834 135.2494 L131.1842 135.395 L131.4472 135.4731 L131.6841 135.4965 L131.9062 135.478 L132.1252 135.4303 L132.3524 135.3664 L132.5994 135.299 L132.8776 135.241 L133.1985 135.2053 L133.4794 135.2068 L133.7199 135.237 L133.9302 135.281 L134.1201 135.3235 L134.2999 135.3494 L134.4794 135.3436 L134.6687 135.2909 L134.8778 135.1764 L135.1168 134.9848 L135.5671 134.5597 L135.934 134.1964 L136.2401 133.8923 L136.5083 133.6452 L136.761 133.4524 L137.021 133.3116 L137.3109 133.2204 L137.6535 133.1763 L138.0713 133.1768" style="fill:none; stroke-width:0.1016;" />
      <path d="M130.5527 135.6021 L131.1181 135.7718 L131.6122 135.8307 L132.0396 135.8092 L132.405 135.7376 L132.7129 135.6463 L132.968 135.5655 L133.175 135.5257 L133.3385 135.5572 L133.4631 135.6903 L133.4759 135.7364 L133.4662 135.7833 L133.4413 135.8386 L133.4082 135.9099 L133.3743 136.0048 L133.3468 136.1307 L133.333 136.2953 L133.3399 136.5061 L133.3749 136.7707" style="fill:none; stroke-width:0.1016;" />
      <path d="M133.1324 138.0716 L133.1571 138.105 L133.1889 138.1414 L133.2258 138.177 L133.2657 138.2079 L133.3068 138.2304 L133.3469 138.2407 L133.384 138.2349 L133.416 138.2092 L133.4411 138.1598" style="fill:none; stroke-width:0.1016;" />
      <path d="M132.6253 138.1157 L132.6632 138.0547 L132.6958 138.0087 L132.7258 137.9764 L132.7558 137.9561 L132.7886 137.9464 L132.8267 137.9457 L132.8729 137.9527 L132.9298 137.9657 L133.0001 137.9834" style="fill:none; stroke-width:0.1016;" />
      <path d="M132.9781 132.7138 L136.2413 130.8176" style="fill:none; stroke-width:0.1016;" />
      <path d="M133.0663 133.5516 L132.934 132.6697" style="fill:none; stroke-width:0.1016;" />
      <path d="M134.3451 132.8461 L134.2569 132.4492" style="fill:none; stroke-width:0.1016;" />
      <path d="M135.9767 131.9641 L135.9326 131.5231" style="fill:none; stroke-width:0.1016;" />
      <path d="M132.2284 137.1235 L132.0961 136.0211" style="fill:none; stroke-width:0.1016;" />
      <path d="M132.0961 135.2714 L132.052 134.9186" style="fill:none; stroke-width:0.1016;" />
      <path d="M132.052 134.9186 L132.6694 134.5659" style="fill:none; stroke-width:0.1016;" />
      <path d="M132.6694 134.61 L132.6253 134.3013" style="fill:none; stroke-width:0.1016;" />
      <path d="M132.493 133.7721 L132.493 133.4634" style="fill:none; stroke-width:0.1016;" />
      <path d="M132.493 133.4634 L132.934 133.1548" style="fill:none; stroke-width:0.1016;" />
      <path d="M138.7989 138.0495 L138.5392 138.1179 L138.3073 138.1081 L138.0991 138.0273 L137.9106 137.8829 L137.7378 137.6821 L137.5767 137.4323 L137.4232 137.1409 L137.2734 136.815 L137.1232 136.462 L136.9443 135.986 L136.8579 135.5999 L136.8782 135.2796 L137.0194 135.0006 L137.2956 134.7387 L137.721 134.4695 L138.3096 134.1687 L139.0758 133.8121 L140.0336 133.3752" style="fill:none; stroke-width:0.1016;" />
      <path d="M137.5642 135.1832 L139.1076 134.3895" style="fill:none; stroke-width:0.1016;" />
      <path d="M139.1076 134.3895 L139.1958 135.8888" style="fill:none; stroke-width:0.1016;" />
      <path d="M136.1531 131.1263 L136.1531 131.3468" style="fill:none; stroke-width:0.1016;" />
      <path d="M136.1531 131.3468 L136.5058 131.1263" style="fill:none; stroke-width:0.1016;" />
      <path d="M141.3235 136.2085 L140.9707 134.4446" style="fill:none; stroke-width:0.1016;" />
      <path d="M141.8967 135.6352 L141.588 134.5769" style="fill:none; stroke-width:0.1016;" />
      <path d="M141.588 134.5769 L141.9408 134.0036" style="fill:none; stroke-width:0.1016;" />
      <path d="M141.9408 135.6793 L142.4259 135.3265" style="fill:none; stroke-width:0.1016;" />
      <path d="M140.7502 135.5911 L139.8242 135.1501" style="fill:none; stroke-width:0.1016;" />
      <path d="M139.8242 135.1501 L139.8242 134.0918" style="fill:none; stroke-width:0.1016;" />
      <path d="M141.8526 138.6338 L141.1471 138.9866" style="fill:none; stroke-width:0.1016;" />
      <path d="M141.1471 138.9866 L141.1912 139.7363" style="fill:none; stroke-width:0.1016;" />
      <path d="M141.1912 139.7363 L142.029 139.2953" style="fill:none; stroke-width:0.1016;" />
      <path d="M141.1471 138.2811 L141.103 137.355" style="fill:none; stroke-width:0.1016;" />
      <path d="M141.7203 138.0606 L141.6762 137.1786" style="fill:none; stroke-width:0.1016;" />
      <path d="M141.8526 137.2227 L141.2353 136.914" style="fill:none; stroke-width:0.1016;" />
      <path d="M142.2054 137.5314 L142.1172 136.6494" style="fill:none; stroke-width:0.1016;" />
      <path d="M142.2054 137.4873 L142.911 137.0904" style="fill:none; stroke-width:0.1016;" />
      <path d="M142.4259 137.8842 L143.1315 137.2227" style="fill:none; stroke-width:0.1016;" />
      <path d="M140.7061 138.5015 L140.59 138.4239 L140.491 138.3561 L140.4057 138.2942 L140.3307 138.2345 L140.2629 138.1732 L140.1987 138.1063 L140.1349 138.0302 L140.0681 137.9409 L139.995 137.8346" style="fill:none; stroke-width:0.1016;" />
      <path d="M139.8242 137.1345 L139.7805 136.944 L139.7579 136.7724 L139.7534 136.6149 L139.7645 136.4662 L139.7883 136.3214 L139.8221 136.1754 L139.8633 136.0231 L139.909 135.8594 L139.9565 135.6793" style="fill:none; stroke-width:0.1016;" />
      <path d="M140.9707 138.237 L140.879 138.1674 L140.7981 138.0945 L140.7269 138.0177 L140.6643 137.9364 L140.6091 137.85 L140.5603 137.758 L140.5169 137.6599 L140.4776 137.5552 L140.4415 137.4432" style="fill:none; stroke-width:0.1016;" />
      <path d="M140.1769 136.9581 L140.179 136.856 L140.1855 136.7497 L140.197 136.6409 L140.214 136.5315 L140.2368 136.4229 L140.2661 136.317 L140.3023 136.2154 L140.3459 136.1199 L140.3974 136.0321" style="fill:none; stroke-width:0.1016;" />
      <path d="M139.2454 136.1589 L139.2397 136.301 L139.2233 136.4206 L139.1969 136.5208 L139.1612 136.6047 L139.1171 136.6754 L139.0652 136.7358 L139.0063 136.7891 L138.9411 136.8383 L138.8705 136.8865" style="fill:none; stroke-width:0.1016;" />
      <path d="M140.9872 134.4832 L140.1494 133.954" style="fill:none; stroke-width:0.1016;" />
      <path d="M140.1494 133.954 L140.1053 133.0721" style="fill:none; stroke-width:0.1016;" />
      <path d="M140.1053 133.0721 L141.0754 133.028" style="fill:none; stroke-width:0.1016;" />
      <path d="M141.0754 133.028 L141.6046 132.587" style="fill:none; stroke-width:0.1016;" />
      <path d="M140.5022 134.0422 L140.899 133.8217" style="fill:none; stroke-width:0.1016;" />
      <path d="M139.6202 133.954 L139.8407 134.0863" style="fill:none; stroke-width:0.1016;" />
      <path d="M139.8407 134.0863 L140.1494 133.9099" style="fill:none; stroke-width:0.1016;" />
      <path d="M140.6344 136.5558 L141.2959 136.2471" style="fill:none; stroke-width:0.1016;" />
      <path d="M141.1195 137.4377 L140.7667 137.1731" style="fill:none; stroke-width:0.1016;" />
      <path d="M140.7667 137.1731 L141.1636 136.9526" style="fill:none; stroke-width:0.1016;" />
      <path d="M142.5306 133.5572 L142.9275 133.3808" style="fill:none; stroke-width:0.1016;" />
      <path d="M142.9716 135.0565 L143.3685 134.836" style="fill:none; stroke-width:0.1016;" />
      <path d="M143.5008 136.7762 L143.9858 136.5558" style="fill:none; stroke-width:0.1016;" />
      <path d="M141.9574 132.7193 L142.4865 132.146" style="fill:none; stroke-width:0.1016;" />
      <path d="M141.781 132.0137 L142.3101 131.6169" style="fill:none; stroke-width:0.1016;" />
      <path d="M143.3685 131.7051 L143.7213 131.3964" style="fill:none; stroke-width:0.1016;" />
      <path d="M143.1921 131.1318 L143.6331 130.8672" style="fill:none; stroke-width:0.1016;" />
      <path d="M141.8692 131.8815 L141.6928 130.6908" style="fill:none; stroke-width:0.1016;" />
      <path d="M141.5605 129.8971 L141.4723 129.5002" style="fill:none; stroke-width:0.1016;" />
      <path d="M133.9317 137.0408 L134.5049 136.7321" style="fill:none; stroke-width:0.1016;" />
      <path d="M135.0341 136.4676 L136.2688 135.8061" style="fill:none; stroke-width:0.1016;" />
      <path d="M136.2688 135.8061 L136.7098 135.762" style="fill:none; stroke-width:0.1016;" />
      <path d="M133.7994 136.3353 L134.0199 136.3353 L134.1522 136.4676 L134.549 136.2912 L134.549 135.9384 L135.2105 135.7179 L135.3428 135.9384 L135.5192 135.6297 L136.0042 135.5415 L136.0924 135.2769 L136.6216 135.0124 L136.8862 135.1447" style="fill:none; stroke-width:0.1016;" />
      <path d="M136.4452 131.22 L136.4893 130.6908 L137.5035 130.2058 L138.2091 130.5145" style="fill:none; stroke-width:0.3251;" />
      <path d="M137.3271 131.3964 L139.962 132.7525" style="fill:none; stroke-width:0.3251;" />
      <path d="M138.606 130.8672 L141.1967 132.091" style="fill:none; stroke-width:0.3251;" />
      <path d="M136.8862 131.22 L136.4011 131.0436" style="fill:none; stroke-width:0.1016;" />
      <path d="M135.2105 142.8176 L135.0714 142.8613 L134.9387 142.8975 L134.8105 142.9269 L134.6846 142.95 L134.5591 142.9675 L134.4319 142.98 L134.301 142.9882 L134.1643 142.9926 L134.0199 142.994" style="fill:none; stroke-width:0.1016;" />
      <path d="M133.4466 142.7735 L133.3983 142.7434 L133.3551 142.7209 L133.3151 142.705 L133.2768 142.6944 L133.2384 142.6883 L133.1982 142.6853 L133.1545 142.6846 L133.1056 142.6849 L133.0497 142.6853" style="fill:none; stroke-width:0.1016;" />
      <path d="M136.2688 142.9058 L136.1834 142.8444 L136.0924 142.7822 L135.9989 142.7181 L135.9062 142.6514 L135.8173 142.5809 L135.7354 142.5059 L135.6637 142.4254 L135.6053 142.3385 L135.5633 142.2443" style="fill:none; stroke-width:0.1016;" />
      <path d="M137.5036 141.8474 L137.4532 141.8097 L137.4072 141.7672 L137.3649 141.7208 L137.3255 141.6714 L137.2885 141.6196 L137.2532 141.5665 L137.2189 141.5127 L137.185 141.4591 L137.1508 141.4065" style="fill:none; stroke-width:0.1016;" />
      <path d="M133.7994 143.3908 L133.7668 143.3428 L133.7438 143.3096 L133.728 143.2868 L133.7174 143.2703 L133.7098 143.2554 L133.7031 143.238 L133.6952 143.2136 L133.6839 143.1778 L133.6671 143.1263" style="fill:none; stroke-width:0.1016;" />
      <path d="M142.1779 140.2599 L142.0372 140.1608 L141.9032 140.0594 L141.773 139.9595 L141.6435 139.8647 L141.5116 139.7788 L141.3743 139.7055 L141.2284 139.6485 L141.071 139.6116 L140.899 139.5985" style="fill:none; stroke-width:0.1016;" />
      <path d="M142.6188 140.4804 L142.5946 140.4016 L142.5738 140.3231 L142.5555 140.2448 L142.5387 140.1665 L142.5224 140.0884 L142.5056 140.0102 L142.4874 139.9319 L142.4666 139.8535 L142.4424 139.7749" style="fill:none; stroke-width:0.1016;" />
      <path d="M142.3983 139.7308 L142.3201 139.7293 L142.2421 139.7252 L142.1642 139.7193 L142.0863 139.7124 L142.0084 139.7051 L141.9302 139.6981 L141.8516 139.6922 L141.7725 139.6882 L141.6928 139.6867" style="fill:none; stroke-width:0.1016;" />
      <path d="M87.9714 115.4222 L89.0738 116.1278" style="fill:none; stroke-width:0.3251;" />
      <path d="M92.4693 115.775 L92.1606 115.5104" style="fill:none; stroke-width:0.3251;" />
      <path d="M82.5474 118.7295 L83.4734 119.2146" style="fill:none; stroke-width:0.3251;" />
      <path d="M87.4863 116.9656 L86.6484 116.3042" style="fill:none; stroke-width:0.3251;" />
      <path d="M90.2203 120.3391 L90.2203 114.9151" style="fill:none; stroke-width:1.0008; stroke:white;" />
      <path d="M90.2203 120.8903 L90.2203 114.3639" style="fill:none; stroke-width:0.1016;" />
      <path d="M91.1464 114.9812 L91.0141 114.5844" style="fill:none; stroke-width:0.3251;" />
      <path d="M90.3629 157.1406 L90.3092 122.9274" style="fill:none; stroke-width:1.0008; stroke:white;" />
      <path d="M90.3636 157.5902 L90.3085 122.4778" style="fill:none; stroke-width:0.1016;" />
      <path d="M77.4044 149.6578 L77.0986 116.4886" style="fill:none; stroke-width:0.1016;" />
      <path style="fill:white; stroke-width:0.1016; fill-rule:evenodd; stroke:none;" d="M76.6053 144.8902 L78.5456 144.8902 L78.5456 144.0083 L76.6053 144.0083 L76.6053 144.8902 L76.6053 144.8902 Z" />
      <path style="fill:white; stroke-width:0.1016; fill-rule:evenodd; stroke:none;" d="M76.4289 142.068 L78.3692 142.068 L78.3692 141.186 L76.4289 141.186 L76.4289 142.068 L76.4289 142.068 Z" />
      <path style="fill:white; stroke-width:0.1016; fill-rule:evenodd; stroke:none;" d="M76.4289 129.5444 L78.3692 129.5444 L78.3692 128.6624 L76.4289 128.6624 L76.4289 129.5444 L76.4289 129.5444 Z" />
      <path style="fill:white; stroke-width:0.1016; fill-rule:evenodd; stroke:none;" d="M76.2525 126.7222 L78.1928 126.7222 L78.1928 125.8402 L76.2525 125.8402 L76.2525 126.7222 L76.2525 126.7222 Z" />
      <path style="fill:white; stroke-width:0.1016; fill-rule:evenodd; stroke:none;" d="M89.1289 148.0652 L91.0692 148.0652 L91.0692 147.1833 L89.1289 147.1833 L89.1289 148.0652 L89.1289 148.0652 Z" />
      <path style="fill:white; stroke-width:0.1016; fill-rule:evenodd; stroke:none;" d="M88.9525 145.243 L90.8928 145.243 L90.8928 144.361 L88.9525 144.361 L88.9525 145.243 L88.9525 145.243 Z" />
      <path style="fill:white; stroke-width:0.1016; fill-rule:evenodd; stroke:none;" d="M89.3053 130.7791 L91.2456 130.7791 L91.2456 129.8972 L89.3053 129.8972 L89.3053 130.7791 L89.3053 130.7791 Z" />
      <path style="fill:white; stroke-width:0.1016; fill-rule:evenodd; stroke:none;" d="M89.1289 127.9569 L91.0692 127.9569 L91.0692 127.0749 L89.1289 127.0749 L89.1289 127.9569 L89.1289 127.9569 Z" />
      <path style="fill:white; stroke-width:0.1016; fill-rule:evenodd; stroke:none;" d="M137.6248 131.9587 L138.154 131.2973 L138.4627 131.5618 L138.0658 132.1792 L137.6248 131.9587 Z" />
      <path style="fill:white; stroke-width:0.1016; fill-rule:evenodd; stroke:none;" d="M138.6832 132.532 L139.2123 131.8705 L139.521 132.1351 L139.1241 132.7525 L138.6832 132.532 Z" />
      <path style="fill:white; stroke-width:0.1016; fill-rule:evenodd; stroke:none;" d="M138.7272 131.3414 L139.2564 130.6799 L139.5651 130.9445 L139.1682 131.5619 L138.7272 131.3414 Z" />
      <path style="fill:white; stroke-width:0.1016; fill-rule:evenodd; stroke:none;" d="M139.9179 131.9146 L140.447 131.2532 L140.7557 131.5177 L140.3588 132.1351 L139.9179 131.9146 Z" />
    </g>
    <g transform="matrix(1,0,0,-1,48.6587,128.0666) scale(0.0883,0.0652)" style="font-size:32; stroke-linecap:butt; text-rendering:optimizeLegibility; font-family:sans-serif; font-weight:bold; stroke-width:0.1016;">
      <text xml:space="preserve" x="0" y="0" style="stroke:none;">AIR FILTERS</text>
    </g>
    <g transform="matrix(1,0,0,-1,140.5573,113.1977) scale(0.0496,0.0407)" style="font-size:32; stroke-linecap:butt; text-rendering:optimizeLegibility; font-family:sans-serif; stroke-width:0.1016;">
      <text xml:space="preserve" x="0" y="0" style="stroke:none;">02_1062</text>
    </g>
    <g transform="matrix(1,0,0,-1,60.8295,102.1374) scale(0.086,0.0652)" style="font-size:32; stroke-linecap:butt; text-rendering:optimizeLegibility; font-family:sans-serif; font-weight:bold; stroke-width:0.1016;">
      <text xml:space="preserve" x="0" y="0" style="stroke:none;">COOLING UNIT SEAL</text>
    </g>
    <g transform="matrix(1,0,0,-1,90.4628,97.7277) scale(0.0837,0.0652)" style="font-size:32; stroke-linecap:butt; text-rendering:optimizeLegibility; font-family:sans-serif; font-weight:bold; stroke-width:0.1016;">
      <text xml:space="preserve" x="0" y="0" style="stroke:none;">RETAINING NUT</text>
    </g>
    <g transform="matrix(0,0,0,0,0,0)" style="font-size:32; stroke-linecap:butt; fill:white; text-rendering:optimizeLegibility; font-family:sans-serif; stroke:white; font-weight:bold; stroke-width:0.1016;">
      <path d="M82.0384 133.1298 L84.2306 135.4964 L84.0102 135.761 L80.8486 135.2793 L82.0384 133.1298 Z" style="fill-rule:evenodd; stroke:none;" />
      <path d="M82.3004 134.7141 L66.6639 127.6053" style="fill:none; stroke-width:1.0008;" />
      <path d="M82.6667 134.8807 L66.2976 127.4388" style="fill:none; stroke-width:0.196; stroke:black;" />
      <path style="fill:black; stroke-width:0.196; fill-rule:evenodd; stroke:none;" d="M83.9954 135.575 L81.322 135.0335 L81.7051 134.3183 L82.077 133.6011 L84.056 135.5623 L83.9954 135.575 L83.9954 135.575 Z" />
      <path d="M91.6409 128.1846 L94.5104 129.6586 L94.3937 129.9826 L91.2581 130.6114 L91.6409 128.1846 Z" style="stroke-width:0.196; fill-rule:evenodd; stroke:none;" />
      <path d="M92.4292 129.593 L66.762 127.4855" style="fill:none; stroke-width:1.0008;" />
      <path d="M92.8302 129.6259 L66.361 127.4525" style="fill:none; stroke-width:0.196; stroke:black;" />
      <path style="fill:black; stroke-width:0.196; fill-rule:evenodd; stroke:none;" d="M94.3162 129.8129 L91.6188 130.2184 L91.7342 129.4153 L91.8384 128.6142 L94.3688 129.7803 L94.3162 129.8129 L94.3162 129.8129 Z" />
      <path d="M68.3013 128.3014 L66.2976 127.3947" style="fill:none; stroke:black;" />
      <path d="M68.1607 128.3318 L66.2645 127.4939" style="fill:none; stroke:black;" />
      <path d="M85.7243 114.7142 L85.3206 117.9148 L84.9762 117.9159 L83.3129 115.1845 L85.7243 114.7142 Z" style="fill-rule:evenodd; stroke:none;" />
      <path d="M84.7072 115.9266 L82.1366 103.2214" style="fill:none; stroke-width:1.0008;" />
      <path d="M84.787 116.321 L82.0568 102.827" style="fill:none; stroke-width:0.196; stroke:black;" />
      <path style="fill:black; stroke-width:0.196; fill-rule:evenodd; stroke:none;" d="M85.1091 117.7851 L83.8055 115.3891 L84.5997 115.2228 L85.3881 115.0467 L85.1578 117.8234 L85.1091 117.7851 L85.1091 117.7851 Z" />
      <path d="M92.6955 109.8535 L90.7456 112.4234 L90.4467 112.2522 L90.372 109.0551 L92.6955 109.8535 Z" style="stroke-width:0.196; fill-rule:evenodd; stroke:none;" />
      <path d="M91.21 110.3954 L95.1564 98.7982" style="fill:none; stroke-width:1.0008;" />
      <path d="M91.0804 110.7763 L95.286 98.4173" style="fill:none; stroke-width:0.196; stroke:black;" />
      <path style="fill:black; stroke-width:0.196; fill-rule:evenodd; stroke:none;" d="M90.6273 112.2054 L90.6964 109.4785 L91.4672 109.7317 L92.2381 109.9733 L90.6503 112.2629 L90.6273 112.2054 L90.6273 112.2054 Z" />
    </g>
  </g>
</svg>
